<svg width="30" height="30" viewBox="0 0 63 62" fill="none" xmlns="http://www.w3.org/2000/svg">
<path fill-rule="evenodd" clip-rule="evenodd" d="M31.1387 58.28C46.205 58.28 58.4187 46.0663 58.4187 31C58.4187 15.9337 46.205 3.72 31.1387 3.72C16.0723 3.72 3.85867 15.9337 3.85867 31C3.85867 46.0663 16.0723 58.28 31.1387 58.28ZM31.1387 62C48.2595 62 62.1387 48.1208 62.1387 31C62.1387 13.8792 48.2595 0 31.1387 0C14.0178 0 0.138672 13.8792 0.138672 31C0.138672 48.1208 14.0178 62 31.1387 62Z" fill="url(#paint0_linear_1_12194)"/>
<path d="M25.873 44.3221H31.2579H36.6427L31.2579 36.1118L25.873 44.3221Z" fill="url(#paint1_linear_1_12194)"/>
<path fill-rule="evenodd" clip-rule="evenodd" d="M49.2311 42.2465H41.3697L31.3456 23.6416L23.7284 38.0215L21.4393 42.2465H13.29L26.6105 18.5532H36.2726L49.2311 42.2465Z" fill="white"/>
<defs>
<linearGradient id="paint0_linear_1_12194" x1="-6.26942" y1="-41.1149" x2="13.5928" y2="87.4791" gradientUnits="userSpaceOnUse">
<stop stop-color="#0338D1"/>
<stop offset="0.354167" stop-color="#1CFCFC"/>
<stop offset="0.885417" stop-color="#0338D1"/>
</linearGradient>
<linearGradient id="paint1_linear_1_12194" x1="36.8572" y1="51.2566" x2="35.8542" y2="33.0083" gradientUnits="userSpaceOnUse">
<stop stop-color="#0338D1"/>
<stop offset="0.354167" stop-color="#1CFCFC"/>
<stop offset="0.885417" stop-color="#0338D1"/>
</linearGradient>
</defs>
</svg>
