<svg width="19" height="19" viewBox="0 0 19 19" fill="none" xmlns="http://www.w3.org/2000/svg">
<path d="M0 16.6009C0.000670603 17.237 0.253644 17.8468 0.703411 18.2966C1.15318 18.7463 1.763 18.9993 2.39907 19H16.6009C17.237 18.9993 17.8468 18.7463 18.2966 18.2966C18.7464 17.8468 18.9993 17.237 19 16.6009V7.59998H0V16.6009ZM13.3 10.2834C13.3 10.0756 13.3825 9.87636 13.5295 9.72944C13.6764 9.58252 13.8757 9.49998 14.0834 9.49998H15.0499C15.2577 9.49998 15.457 9.58252 15.6039 9.72944C15.7508 9.87636 15.8333 10.0756 15.8333 10.2834V11.2499C15.8333 11.4577 15.7508 11.6569 15.6039 11.8038C15.457 11.9508 15.2577 12.0333 15.0499 12.0333H14.0834C13.8757 12.0333 13.6764 11.9508 13.5295 11.8038C13.3825 11.6569 13.3 11.4577 13.3 11.2499V10.2834ZM8.23333 10.2834C8.23333 10.1805 8.2536 10.0787 8.29297 9.9836C8.33234 9.88855 8.39005 9.80219 8.4628 9.72944C8.53555 9.65669 8.62191 9.59898 8.71696 9.55961C8.81201 9.52024 8.91389 9.49998 9.01677 9.49998H9.98324C10.191 9.49998 10.3903 9.58252 10.5372 9.72944C10.6841 9.87636 10.7667 10.0756 10.7667 10.2834V11.2499C10.7667 11.4577 10.6841 11.6569 10.5372 11.8038C10.3903 11.9508 10.191 12.0333 9.98324 12.0333H9.01677C8.80899 12.0333 8.60972 11.9508 8.4628 11.8038C8.31588 11.6569 8.23333 11.4577 8.23333 11.2499V10.2834ZM8.23333 15.3501C8.23333 15.1423 8.31588 14.943 8.4628 14.7961C8.60972 14.6492 8.80899 14.5666 9.01677 14.5666H9.98324C10.191 14.5666 10.3903 14.6492 10.5372 14.7961C10.6841 14.943 10.7667 15.1423 10.7667 15.3501V16.3165C10.7667 16.4194 10.7464 16.5213 10.707 16.6164C10.6677 16.7114 10.61 16.7978 10.5372 16.8705C10.4645 16.9433 10.3781 17.001 10.283 17.0403C10.188 17.0797 10.0861 17.1 9.98324 17.1H9.01677C8.80899 17.1 8.60972 17.0174 8.4628 16.8705C8.31588 16.7236 8.23333 16.5243 8.23333 16.3165V15.3501ZM3.16667 10.2834C3.16667 10.1805 3.18693 10.0787 3.2263 9.9836C3.26567 9.88855 3.32338 9.80219 3.39613 9.72944C3.46888 9.65669 3.55524 9.59898 3.65029 9.55961C3.74534 9.52024 3.84722 9.49998 3.9501 9.49998H4.91657C5.12435 9.49998 5.32362 9.58252 5.47054 9.72944C5.61746 9.87636 5.7 10.0756 5.7 10.2834V11.2499C5.7 11.4577 5.61746 11.6569 5.47054 11.8038C5.32362 11.9508 5.12435 12.0333 4.91657 12.0333H3.9501C3.74232 12.0333 3.54305 11.9508 3.39613 11.8038C3.24921 11.6569 3.16667 11.4577 3.16667 11.2499V10.2834ZM3.16667 15.3501C3.16667 15.1423 3.24921 14.943 3.39613 14.7961C3.54305 14.6492 3.74232 14.5666 3.9501 14.5666H4.91657C5.12435 14.5666 5.32362 14.6492 5.47054 14.7961C5.61746 14.943 5.7 15.1423 5.7 15.3501V16.3165C5.7 16.4194 5.67974 16.5213 5.64037 16.6164C5.60099 16.7114 5.54329 16.7978 5.47054 16.8705C5.39779 16.9433 5.31143 17.001 5.21637 17.0403C5.12132 17.0797 5.01945 17.1 4.91657 17.1H3.9501C3.74232 17.1 3.54305 17.0174 3.39613 16.8705C3.24921 16.7236 3.16667 16.5243 3.16667 16.3165V15.3501Z" fill="#3D455F"/>
<path d="M0 16.6009C0.000670603 17.237 0.253644 17.8468 0.703411 18.2966C1.15318 18.7463 1.763 18.9993 2.39907 19H16.6009C17.237 18.9993 17.8468 18.7463 18.2966 18.2966C18.7464 17.8468 18.9993 17.237 19 16.6009V7.59998H0V16.6009ZM13.3 10.2834C13.3 10.0756 13.3825 9.87636 13.5295 9.72944C13.6764 9.58252 13.8757 9.49998 14.0834 9.49998H15.0499C15.2577 9.49998 15.457 9.58252 15.6039 9.72944C15.7508 9.87636 15.8333 10.0756 15.8333 10.2834V11.2499C15.8333 11.4577 15.7508 11.6569 15.6039 11.8038C15.457 11.9508 15.2577 12.0333 15.0499 12.0333H14.0834C13.8757 12.0333 13.6764 11.9508 13.5295 11.8038C13.3825 11.6569 13.3 11.4577 13.3 11.2499V10.2834ZM8.23333 10.2834C8.23333 10.1805 8.2536 10.0787 8.29297 9.9836C8.33234 9.88855 8.39005 9.80219 8.4628 9.72944C8.53555 9.65669 8.62191 9.59898 8.71696 9.55961C8.81201 9.52024 8.91389 9.49998 9.01677 9.49998H9.98324C10.191 9.49998 10.3903 9.58252 10.5372 9.72944C10.6841 9.87636 10.7667 10.0756 10.7667 10.2834V11.2499C10.7667 11.4577 10.6841 11.6569 10.5372 11.8038C10.3903 11.9508 10.191 12.0333 9.98324 12.0333H9.01677C8.80899 12.0333 8.60972 11.9508 8.4628 11.8038C8.31588 11.6569 8.23333 11.4577 8.23333 11.2499V10.2834ZM8.23333 15.3501C8.23333 15.1423 8.31588 14.943 8.4628 14.7961C8.60972 14.6492 8.80899 14.5666 9.01677 14.5666H9.98324C10.191 14.5666 10.3903 14.6492 10.5372 14.7961C10.6841 14.943 10.7667 15.1423 10.7667 15.3501V16.3165C10.7667 16.4194 10.7464 16.5213 10.707 16.6164C10.6677 16.7114 10.61 16.7978 10.5372 16.8705C10.4645 16.9433 10.3781 17.001 10.283 17.0403C10.188 17.0797 10.0861 17.1 9.98324 17.1H9.01677C8.80899 17.1 8.60972 17.0174 8.4628 16.8705C8.31588 16.7236 8.23333 16.5243 8.23333 16.3165V15.3501ZM3.16667 10.2834C3.16667 10.1805 3.18693 10.0787 3.2263 9.9836C3.26567 9.88855 3.32338 9.80219 3.39613 9.72944C3.46888 9.65669 3.55524 9.59898 3.65029 9.55961C3.74534 9.52024 3.84722 9.49998 3.9501 9.49998H4.91657C5.12435 9.49998 5.32362 9.58252 5.47054 9.72944C5.61746 9.87636 5.7 10.0756 5.7 10.2834V11.2499C5.7 11.4577 5.61746 11.6569 5.47054 11.8038C5.32362 11.9508 5.12435 12.0333 4.91657 12.0333H3.9501C3.74232 12.0333 3.54305 11.9508 3.39613 11.8038C3.24921 11.6569 3.16667 11.4577 3.16667 11.2499V10.2834ZM3.16667 15.3501C3.16667 15.1423 3.24921 14.943 3.39613 14.7961C3.54305 14.6492 3.74232 14.5666 3.9501 14.5666H4.91657C5.12435 14.5666 5.32362 14.6492 5.47054 14.7961C5.61746 14.943 5.7 15.1423 5.7 15.3501V16.3165C5.7 16.4194 5.67974 16.5213 5.64037 16.6164C5.60099 16.7114 5.54329 16.7978 5.47054 16.8705C5.39779 16.9433 5.31143 17.001 5.21637 17.0403C5.12132 17.0797 5.01945 17.1 4.91657 17.1H3.9501C3.74232 17.1 3.54305 17.0174 3.39613 16.8705C3.24921 16.7236 3.16667 16.5243 3.16667 16.3165V15.3501Z" fill="#C3D3F3"/>
<path d="M9.50247 3.85957C9.67044 3.85957 9.83154 3.79285 9.95031 3.67407C10.0691 3.5553 10.1358 3.39421 10.1358 3.22624V0.692904C10.1358 0.524933 10.0691 0.363842 9.95031 0.245069C9.83154 0.126296 9.67044 0.0595703 9.50247 0.0595703C9.3345 0.0595703 9.17341 0.126296 9.05464 0.245069C8.93587 0.363842 8.86914 0.524933 8.86914 0.692904V3.22624C8.86914 3.39421 8.93587 3.5553 9.05464 3.67407C9.17341 3.79285 9.3345 3.85957 9.50247 3.85957Z" fill="#3D455F"/>
<path d="M9.50247 3.85957C9.67044 3.85957 9.83154 3.79285 9.95031 3.67407C10.0691 3.5553 10.1358 3.39421 10.1358 3.22624V0.692904C10.1358 0.524933 10.0691 0.363842 9.95031 0.245069C9.83154 0.126296 9.67044 0.0595703 9.50247 0.0595703C9.3345 0.0595703 9.17341 0.126296 9.05464 0.245069C8.93587 0.363842 8.86914 0.524933 8.86914 0.692904V3.22624C8.86914 3.39421 8.93587 3.5553 9.05464 3.67407C9.17341 3.79285 9.3345 3.85957 9.50247 3.85957Z" fill="#C3D3F3"/>
<path d="M4.43411 3.8C4.60209 3.8 4.76318 3.73327 4.88195 3.6145C5.00072 3.49573 5.06745 3.33464 5.06745 3.16667V0.633333C5.06745 0.465363 5.00072 0.304272 4.88195 0.185499C4.76318 0.066726 4.60209 0 4.43411 0C4.26614 0 4.10505 0.066726 3.98628 0.185499C3.86751 0.304272 3.80078 0.465363 3.80078 0.633333V3.16667C3.80078 3.33464 3.86751 3.49573 3.98628 3.6145C4.10505 3.73327 4.26614 3.8 4.43411 3.8Z" fill="#3D455F"/>
<path d="M4.43411 3.8C4.60209 3.8 4.76318 3.73327 4.88195 3.6145C5.00072 3.49573 5.06745 3.33464 5.06745 3.16667V0.633333C5.06745 0.465363 5.00072 0.304272 4.88195 0.185499C4.76318 0.066726 4.60209 0 4.43411 0C4.26614 0 4.10505 0.066726 3.98628 0.185499C3.86751 0.304272 3.80078 0.465363 3.80078 0.633333V3.16667C3.80078 3.33464 3.86751 3.49573 3.98628 3.6145C4.10505 3.73327 4.26614 3.8 4.43411 3.8Z" fill="#C3D3F3"/>
<path d="M14.5645 3.8C14.7325 3.8 14.8935 3.73327 15.0123 3.6145C15.1311 3.49573 15.1978 3.33464 15.1978 3.16667V0.633333C15.1978 0.465363 15.1311 0.304272 15.0123 0.185499C14.8935 0.066726 14.7325 0 14.5645 0C14.3965 0 14.2354 0.066726 14.1167 0.185499C13.9979 0.304272 13.9312 0.465363 13.9312 0.633333V3.16667C13.9312 3.33464 13.9979 3.49573 14.1167 3.6145C14.2354 3.73327 14.3965 3.8 14.5645 3.8Z" fill="#3D455F"/>
<path d="M14.5645 3.8C14.7325 3.8 14.8935 3.73327 15.0123 3.6145C15.1311 3.49573 15.1978 3.33464 15.1978 3.16667V0.633333C15.1978 0.465363 15.1311 0.304272 15.0123 0.185499C14.8935 0.066726 14.7325 0 14.5645 0C14.3965 0 14.2354 0.066726 14.1167 0.185499C13.9979 0.304272 13.9312 0.465363 13.9312 0.633333V3.16667C13.9312 3.33464 13.9979 3.49573 14.1167 3.6145C14.2354 3.73327 14.3965 3.8 14.5645 3.8Z" fill="#C3D3F3"/>
<path d="M16.6009 1.26672H16.4667V3.16672C16.4667 3.67064 16.2665 4.15391 15.9102 4.51023C15.5539 4.86655 15.0706 5.06672 14.5667 5.06672C14.0628 5.06672 13.5795 4.86655 13.2232 4.51023C12.8668 4.15391 12.6667 3.67064 12.6667 3.16672V1.26672H11.4044V3.22626C11.4044 3.73017 11.2043 4.21344 10.8479 4.56976C10.4916 4.92608 10.0083 5.12626 9.50443 5.12626C9.00052 5.12626 8.51725 4.92608 8.16093 4.56976C7.80461 4.21344 7.60443 3.73017 7.60443 3.22626V1.26672H6.33333V3.16672C6.33333 3.67064 6.13316 4.15391 5.77684 4.51023C5.42052 4.86655 4.93725 5.06672 4.43333 5.06672C3.92942 5.06672 3.44615 4.86655 3.08983 4.51023C2.73351 4.15391 2.53333 3.67064 2.53333 3.16672V1.26672H2.39907C1.763 1.26739 1.15318 1.52037 0.703411 1.97013C0.253644 2.4199 0.000670603 3.02972 0 3.66579V6.33339H19V3.66579C18.9993 3.02972 18.7464 2.4199 18.2966 1.97013C17.8468 1.52037 17.237 1.26739 16.6009 1.26672Z" fill="#3D455F"/>
<path d="M16.6009 1.26672H16.4667V3.16672C16.4667 3.67064 16.2665 4.15391 15.9102 4.51023C15.5539 4.86655 15.0706 5.06672 14.5667 5.06672C14.0628 5.06672 13.5795 4.86655 13.2232 4.51023C12.8668 4.15391 12.6667 3.67064 12.6667 3.16672V1.26672H11.4044V3.22626C11.4044 3.73017 11.2043 4.21344 10.8479 4.56976C10.4916 4.92608 10.0083 5.12626 9.50443 5.12626C9.00052 5.12626 8.51725 4.92608 8.16093 4.56976C7.80461 4.21344 7.60443 3.73017 7.60443 3.22626V1.26672H6.33333V3.16672C6.33333 3.67064 6.13316 4.15391 5.77684 4.51023C5.42052 4.86655 4.93725 5.06672 4.43333 5.06672C3.92942 5.06672 3.44615 4.86655 3.08983 4.51023C2.73351 4.15391 2.53333 3.67064 2.53333 3.16672V1.26672H2.39907C1.763 1.26739 1.15318 1.52037 0.703411 1.97013C0.253644 2.4199 0.000670603 3.02972 0 3.66579V6.33339H19V3.66579C18.9993 3.02972 18.7464 2.4199 18.2966 1.97013C17.8468 1.52037 17.237 1.26739 16.6009 1.26672Z" fill="#C3D3F3"/>
</svg>
