<svg width="34" height="34" viewBox="0 0 34 34" fill="none" xmlns="http://www.w3.org/2000/svg">
<path fill-rule="evenodd" clip-rule="evenodd" d="M34 17C34 26.3888 26.3888 34 17 34C7.61116 34 0 26.3888 0 17C0 7.61116 7.61116 0 17 0C26.3888 0 34 7.61116 34 17ZM14.461 23.9215C14.2976 24.1706 14.4763 24.5015 14.7742 24.5015H17.1109H19.4477C19.7455 24.5015 19.9242 24.1706 19.7609 23.9215L17.4241 20.3587C17.2762 20.1332 16.9456 20.1332 16.7977 20.3587L14.461 23.9215ZM26.5941 23.3334C26.8786 23.3334 27.0593 23.0288 26.9228 22.7792L20.04 10.1948C19.9743 10.0747 19.8483 10 19.7114 10H14.7152C14.5798 10 14.455 10.073 14.3887 10.191L7.31377 22.7753C7.1734 23.025 7.35383 23.3334 7.64026 23.3334H11.3629C11.5004 23.3334 11.6268 23.2582 11.6922 23.1373L12.8742 20.9558L16.8326 13.483C16.9728 13.2184 17.3513 13.2171 17.4933 13.4807L22.6958 23.1366C22.7611 23.2578 22.8878 23.3334 23.0255 23.3334H26.5941Z" fill="#C3D4EF"/>
</svg>
