<svg width="138" height="138" viewBox="0 0 138 138" fill="none" xmlns="http://www.w3.org/2000/svg">
<path d="M117.432 20.4771C90.8053 -6.14927 47.104 -6.14927 20.4776 20.4771C-6.14879 47.1035 -6.14879 90.8048 20.4776 117.431C47.104 144.058 90.8053 144.058 117.432 117.431C144.058 90.8048 144.058 47.1035 117.432 20.4771ZM31.8394 106.069C11.4791 85.7091 11.4791 52.1993 31.8394 31.8389C52.1998 11.4786 85.7095 11.4786 106.07 31.8389C126.43 52.1993 126.43 85.7091 106.07 106.069C85.7095 126.43 52.1998 126.43 31.8394 106.069Z" fill="white"/>
<path d="M100.389 37.5194C83.1605 20.2909 54.7488 20.2909 37.5203 37.5194C20.2918 54.7479 20.2918 83.1596 37.5203 100.388C54.7488 117.617 83.1605 117.617 100.389 100.388C117.617 83.1596 117.617 54.7479 100.389 37.5194ZM71.7951 94.5178C70.2251 96.0878 67.6842 96.0878 66.1142 94.5178L43.3906 71.7942C41.8206 70.2242 41.8206 67.6833 43.3906 66.1133L66.1142 43.3896C67.6842 41.8196 70.2251 41.8196 71.7951 43.3896L94.5187 66.1133C96.0888 67.6833 96.0888 70.2242 94.5187 71.7942L71.7951 94.5178Z" fill="white"/>
<path d="M68.9547 51.9112L85.9974 68.9539L68.9547 85.9966L51.912 68.9539L68.9547 51.9112Z" fill="white"/>
</svg>
