<svg width="24" height="26" viewBox="0 0 24 26" fill="none" xmlns="http://www.w3.org/2000/svg">
<g clip-path="url(#clip0_1_129)">
<path d="M11.9997 14.6051C12.6101 14.6051 13.1049 14.1103 13.1049 13.5C13.1049 12.8896 12.6101 12.3948 11.9997 12.3948C11.3893 12.3948 10.8945 12.8896 10.8945 13.5C10.8945 14.1103 11.3893 14.6051 11.9997 14.6051Z" fill="#A5B8D7"/>
<path d="M12 1.5C5.4 1.5 0 6.9 0 13.5C0 20.1 5.4 25.5 12 25.5C18.6 25.5 24 20.1 24 13.5C24 6.9 18.6 1.5 12 1.5ZM17.9143 8.61429L15.1714 16.1571C15.1345 16.2785 15.0683 16.3889 14.9786 16.4786C14.8889 16.5683 14.7785 16.6345 14.6571 16.6714L7.11429 19.4143C6.25714 19.6714 5.74286 18.9857 6 18.3L8.74286 10.7571C8.77977 10.6358 8.84599 10.5254 8.93569 10.4357C9.02538 10.346 9.13579 10.2798 9.25714 10.2429L16.8 7.5C17.4 7.32857 18.1714 7.75714 17.9143 8.61429Z" fill="#A5B8D7"/>
</g>
<defs>
<clipPath id="clip0_1_129">
<rect width="24" height="24" fill="white" transform="translate(0 1.5)"/>
</clipPath>
</defs>
</svg>
