<svg width="20" height="16" viewBox="0 0 20 16" fill="none" xmlns="http://www.w3.org/2000/svg">
<path d="M16.2714 1.92111C15.1016 1.3734 13.8472 0.969878 12.5356 0.738762C12.5117 0.734302 12.4879 0.745449 12.4756 0.767743C12.3142 1.06054 12.1355 1.44251 12.0104 1.74274C10.5997 1.52724 9.19626 1.52724 7.81449 1.74274C7.68933 1.43584 7.50414 1.06054 7.34208 0.767743C7.32978 0.746193 7.30592 0.735046 7.28203 0.738762C5.97118 0.96914 4.71675 1.37267 3.54624 1.92111C3.53611 1.92557 3.52742 1.93301 3.52166 1.94266C1.14228 5.56996 0.490464 9.1081 0.810221 12.6024C0.811668 12.6195 0.821072 12.6358 0.834094 12.6462C2.40394 13.8226 3.92461 14.5368 5.41703 15.0102C5.44092 15.0176 5.46622 15.0087 5.48142 14.9886C5.83446 14.4967 6.14916 13.9779 6.41898 13.4325C6.4349 13.4005 6.4197 13.3626 6.38716 13.35C5.88799 13.1568 5.41269 12.9212 4.95548 12.6537C4.91932 12.6321 4.91642 12.5793 4.94969 12.5541C5.0459 12.4805 5.14214 12.4039 5.23401 12.3266C5.25064 12.3125 5.2738 12.3096 5.29334 12.3185C8.29701 13.7178 11.5488 13.7178 14.5171 12.3185C14.5366 12.3088 14.5598 12.3118 14.5771 12.3259C14.669 12.4032 14.7652 12.4805 14.8622 12.5541C14.8954 12.5793 14.8933 12.6321 14.8571 12.6537C14.3999 12.9264 13.9246 13.1568 13.4247 13.3492C13.3922 13.3619 13.3777 13.4005 13.3936 13.4325C13.6692 13.9772 13.9839 14.4959 14.3304 14.9879C14.3449 15.0087 14.3709 15.0176 14.3948 15.0102C15.8945 14.5368 17.4151 13.8226 18.985 12.6462C18.9987 12.6358 19.0074 12.6202 19.0089 12.6031C19.3916 8.56335 18.3679 5.05422 16.2953 1.9434C16.2902 1.93301 16.2815 1.92557 16.2714 1.92111ZM6.86753 10.4747C5.96322 10.4747 5.21809 9.62755 5.21809 8.58714C5.21809 7.54673 5.94877 6.69955 6.86753 6.69955C7.7935 6.69955 8.53142 7.55416 8.51694 8.58714C8.51694 9.62755 7.78627 10.4747 6.86753 10.4747ZM12.966 10.4747C12.0618 10.4747 11.3166 9.62755 11.3166 8.58714C11.3166 7.54673 12.0473 6.69955 12.966 6.69955C13.892 6.69955 14.6299 7.55416 14.6155 8.58714C14.6155 9.62755 13.892 10.4747 12.966 10.4747Z" fill="white"/>
<path d="M16.2714 1.92111C15.1016 1.3734 13.8472 0.969878 12.5356 0.738762C12.5117 0.734302 12.4879 0.745449 12.4756 0.767743C12.3142 1.06054 12.1355 1.44251 12.0104 1.74274C10.5997 1.52724 9.19626 1.52724 7.81449 1.74274C7.68933 1.43584 7.50414 1.06054 7.34208 0.767743C7.32978 0.746193 7.30592 0.735046 7.28203 0.738762C5.97118 0.96914 4.71675 1.37267 3.54624 1.92111C3.53611 1.92557 3.52742 1.93301 3.52166 1.94266C1.14228 5.56996 0.490464 9.1081 0.810221 12.6024C0.811668 12.6195 0.821072 12.6358 0.834094 12.6462C2.40394 13.8226 3.92461 14.5368 5.41703 15.0102C5.44092 15.0176 5.46622 15.0087 5.48142 14.9886C5.83446 14.4967 6.14916 13.9779 6.41898 13.4325C6.4349 13.4005 6.4197 13.3626 6.38716 13.35C5.88799 13.1568 5.41269 12.9212 4.95548 12.6537C4.91932 12.6321 4.91642 12.5793 4.94969 12.5541C5.0459 12.4805 5.14214 12.4039 5.23401 12.3266C5.25064 12.3125 5.2738 12.3096 5.29334 12.3185C8.29701 13.7178 11.5488 13.7178 14.5171 12.3185C14.5366 12.3088 14.5598 12.3118 14.5771 12.3259C14.669 12.4032 14.7652 12.4805 14.8622 12.5541C14.8954 12.5793 14.8933 12.6321 14.8571 12.6537C14.3999 12.9264 13.9246 13.1568 13.4247 13.3492C13.3922 13.3619 13.3777 13.4005 13.3936 13.4325C13.6692 13.9772 13.9839 14.4959 14.3304 14.9879C14.3449 15.0087 14.3709 15.0176 14.3948 15.0102C15.8945 14.5368 17.4151 13.8226 18.985 12.6462C18.9987 12.6358 19.0074 12.6202 19.0089 12.6031C19.3916 8.56335 18.3679 5.05422 16.2953 1.9434C16.2902 1.93301 16.2815 1.92557 16.2714 1.92111ZM6.86753 10.4747C5.96322 10.4747 5.21809 9.62755 5.21809 8.58714C5.21809 7.54673 5.94877 6.69955 6.86753 6.69955C7.7935 6.69955 8.53142 7.55416 8.51694 8.58714C8.51694 9.62755 7.78627 10.4747 6.86753 10.4747ZM12.966 10.4747C12.0618 10.4747 11.3166 9.62755 11.3166 8.58714C11.3166 7.54673 12.0473 6.69955 12.966 6.69955C13.892 6.69955 14.6299 7.55416 14.6155 8.58714C14.6155 9.62755 13.892 10.4747 12.966 10.4747Z" fill="#A5B8D7"/>
</svg>
