<svg width="18" height="18" viewBox="0 0 18 18" fill="none" xmlns="http://www.w3.org/2000/svg">
<path d="M12.7855 8.85975L9.25 5.32422L5.71447 8.85975L9.25 12.3953L12.7855 8.85975Z" stroke="#000936" stroke-width="1.5" stroke-linecap="round" stroke-linejoin="round"/>
<path d="M9.25 17.4094C13.9719 17.4094 17.8 13.5813 17.8 8.85938C17.8 4.13744 13.9719 0.309375 9.25 0.309375C4.52807 0.309375 0.7 4.13744 0.7 8.85938C0.7 13.5813 4.52807 17.4094 9.25 17.4094ZM11.8923 15.2383C11.0546 15.5853 10.1567 15.7639 9.25 15.7639C7.4188 15.7639 5.6626 15.0365 4.36775 13.7416C3.0729 12.4468 2.34545 10.6906 2.34545 8.85938C2.34545 7.02818 3.0729 5.27198 4.36775 3.97712C5.6626 2.68227 7.4188 1.95483 9.25 1.95483C10.1567 1.95483 11.0546 2.13342 11.8923 2.48041C12.73 2.82739 13.4911 3.33598 14.1322 3.97712C14.7734 4.61827 15.282 5.37942 15.629 6.21712C15.976 7.05482 16.1545 7.95266 16.1545 8.85938C16.1545 9.76609 15.976 10.6639 15.629 11.5016C15.282 12.3393 14.7734 13.1005 14.1322 13.7416C13.4911 14.3828 12.73 14.8914 11.8923 15.2383Z" fill="#000936" stroke="#000936" stroke-width="0.1"/>
</svg>
