<svg width="128" height="128" viewBox="0 0 128 128" fill="none" xmlns="http://www.w3.org/2000/svg">
<path d="M51.3307 27.9008C42.4641 13.3341 32.3307 0.66748 32.3307 0.66748C32.3307 0.66748 0.664062 39.9341 0.664062 57.6675C0.664062 72.8675 11.4307 86.1675 25.9974 88.7008C25.9974 87.4341 25.9974 85.5341 25.9974 84.2675C25.9974 69.0675 38.6641 46.2675 51.3307 27.9008V27.9008Z" fill="white"/>
<path d="M82.9974 7.00098C82.9974 7.00098 38.6641 60.8343 38.6641 84.2676C38.6641 107.701 58.2974 127.334 82.9974 127.334C107.697 127.334 127.331 108.334 127.331 84.2676C127.331 60.201 82.9974 7.00098 82.9974 7.00098ZM114.031 91.2343C114.031 93.1343 112.764 95.0343 112.131 96.9343C110.864 98.201 110.231 100.101 108.964 101.368C107.697 102.634 106.431 103.901 105.164 104.534C102.631 106.434 99.4641 107.068 97.5641 107.701C95.0307 108.334 93.1307 107.701 91.8641 107.701C90.5974 107.701 89.9641 107.068 89.9641 107.068C89.9641 107.068 93.1307 103.901 94.3974 102.634C109.597 89.9676 107.064 69.701 107.064 69.701C107.064 69.701 107.697 70.3343 108.964 70.9676C110.231 72.2343 111.497 73.501 112.764 76.0343C114.031 78.5676 115.297 81.7343 115.297 84.901C114.664 87.4343 114.664 89.3343 114.031 91.2343V91.2343Z" fill="white"/>
</svg>
