<svg width="38" height="22" viewBox="0 0 38 22" fill="none" xmlns="http://www.w3.org/2000/svg">
<path d="M21.0207 10.6513C21.0207 16.3978 16.3495 21.0575 10.5844 21.0575C9.216 21.0593 7.86065 20.7916 6.59572 20.2696C5.3308 19.7477 4.18107 18.9817 3.21218 18.0154C2.2433 17.049 1.47423 15.9014 0.948883 14.6378C0.423539 13.3743 0.152212 12.0197 0.150391 10.6513C0.150391 4.9024 4.82164 0.245023 10.5844 0.245023C11.953 0.242896 13.3086 0.510391 14.5738 1.03223C15.839 1.55407 16.989 2.32003 17.9581 3.28637C18.9272 4.25271 19.6965 5.4005 20.222 6.66418C20.7475 7.92787 21.0189 9.28269 21.0207 10.6513ZM32.4676 10.6513C32.4676 16.0625 30.132 20.447 27.2506 20.447C24.3692 20.447 22.0336 16.0602 22.0336 10.6513C22.0336 5.24002 24.3692 0.855523 27.2506 0.855523C30.132 0.855523 32.4676 5.24233 32.4676 10.6513ZM37.1504 10.6513C37.1504 15.4983 36.3295 19.4272 35.3143 19.4272C34.3014 19.4272 33.4805 15.496 33.4805 10.6513C33.4805 5.80427 34.3014 1.87534 35.3166 1.87534C36.3295 1.87534 37.1504 5.80427 37.1504 10.6513Z" fill="#A5B8D7"/>
</svg>
