<svg width="25" height="25" viewBox="0 0 25 25" fill="none" xmlns="http://www.w3.org/2000/svg">
<g clip-path="url(#clip0_177_278)">
<path d="M22.2284 0.875357C15.368 3.01583 8.0489 5.94233 0.68762 8.65732C-0.231133 8.99687 -0.224098 10.2397 0.70169 10.5117C2.84076 11.1397 4.98826 11.7981 7.13624 12.4655C7.27553 12.5087 7.42655 12.4894 7.54942 12.4125C10.9834 10.2631 14.4441 8.05513 17.8025 5.96719C17.9765 5.85885 18.166 6.10366 18.0149 6.24202C15.2864 8.74643 12.4494 11.3512 9.65472 13.9152C9.47557 14.0793 9.44321 14.3495 9.57734 14.5535C11.3778 17.2919 13.1722 20.0439 14.8521 22.7472C15.2789 23.4357 16.2886 23.2917 16.5925 22.5085C19.2193 15.7058 21.9854 8.97154 23.9632 2.60453C24.2643 1.62809 23.2034 0.573327 22.2284 0.875357V0.875357Z" fill="#7087AD"/>
<path d="M6.80371 14.584C6.82059 16.4877 6.8553 18.3913 6.90736 20.2949C6.93175 21.1082 7.89036 21.5598 8.46628 21.0181C9.06847 20.4534 9.67769 19.8836 10.2925 19.3105C10.5899 19.0333 10.6443 18.5742 10.4187 18.2271C9.56325 16.9112 8.69796 15.5947 7.83455 14.2848C7.52596 13.8168 6.79902 14.0287 6.80418 14.584H6.80371Z" fill="#7087AD"/>
</g>
<defs>
<clipPath id="clip0_177_278">
<rect width="24.0123" height="24.0123" fill="white"/>
</clipPath>
</defs>
</svg>
