<svg width="25" height="27" viewBox="0 0 25 27" fill="none" xmlns="http://www.w3.org/2000/svg">
<path d="M17.7218 5.75793C17.6322 5.4828 17.3942 5.28214 17.1082 5.24062L14.3862 4.84501L13.1685 2.37815C13.0409 2.11886 12.7767 1.95459 12.4872 1.95459C12.1977 1.95459 11.9335 2.11886 11.8058 2.37815L10.5881 4.84505L7.86568 5.24066C7.57966 5.28223 7.34165 5.48284 7.25212 5.75797C7.16259 6.0331 7.23728 6.33519 7.44461 6.53707L9.41498 8.45721L8.9494 11.1683C8.90039 11.4535 9.0177 11.7418 9.25176 11.9118C9.48632 12.0825 9.79657 12.1035 10.0524 11.9697L12.4874 10.6896L14.9219 11.9697C15.1836 12.1069 15.4926 12.0786 15.7225 11.9118C15.9565 11.7418 16.0738 11.4536 16.0248 11.1686L15.5597 8.45721L17.5296 6.53707C17.7366 6.33519 17.8108 6.03306 17.7218 5.75793Z" fill="#A5B8D7"/>
<path d="M15.5219 13.4199H9.44168C9.02193 13.4199 8.68164 13.7724 8.68164 14.2072V25.4913H16.282V14.2072C16.282 13.7724 15.9417 13.4199 15.5219 13.4199Z" fill="#A5B8D7"/>
<path d="M1.83914 16.9862C1.41939 16.9862 1.0791 17.3222 1.0791 17.7367V24.8981C1.0791 25.2258 1.34815 25.4914 1.68 25.4914H7.15939V16.9862H1.83914Z" fill="#A5B8D7"/>
<path d="M23.119 18.9913H17.7988V25.4913H23.2782C23.6101 25.4913 23.8791 25.1775 23.8791 24.7905V19.8777C23.8791 19.3882 23.5388 18.9913 23.119 18.9913Z" fill="#A5B8D7"/>
</svg>
