<svg width="24" height="25" viewBox="0 0 24 25" fill="none" xmlns="http://www.w3.org/2000/svg">
<path d="M16.8575 4.10851C16.7679 3.83339 16.5299 3.63272 16.2439 3.5912L13.522 3.19559L12.3042 0.728737C12.1766 0.469445 11.9124 0.305176 11.6229 0.305176C11.3335 0.305176 11.0692 0.469445 10.9416 0.728737L9.72385 3.19564L7.00142 3.59125C6.7154 3.63281 6.47739 3.83343 6.38786 4.10856C6.29833 4.38369 6.37302 4.68577 6.58036 4.88766L8.55073 6.8078L8.08515 9.51888C8.03614 9.80413 8.15344 10.0924 8.3875 10.2624C8.62206 10.4331 8.93231 10.4541 9.18811 10.3203L11.6231 9.04018L14.0576 10.3203C14.3193 10.4575 14.6283 10.4292 14.8582 10.2624C15.0922 10.0924 15.2095 9.80417 15.1606 9.51915L14.6955 6.8078L16.6653 4.88766C16.8724 4.68577 16.9466 4.38364 16.8575 4.10851Z" fill="#7087AD"/>
<path d="M14.6577 11.7705H8.57742C8.15768 11.7705 7.81738 12.123 7.81738 12.5578V23.8419H15.4177V12.5578C15.4177 12.123 15.0774 11.7705 14.6577 11.7705Z" fill="#7087AD"/>
<path d="M0.974885 15.3369C0.555136 15.3369 0.214844 15.6729 0.214844 16.0874V23.2488C0.214844 23.5765 0.483892 23.8421 0.815743 23.8421H6.29513V15.3369H0.974885Z" fill="#7087AD"/>
<path d="M22.2548 17.3423H16.9346V23.8422H22.414C22.7459 23.8422 23.0149 23.5285 23.0149 23.1415V18.2286C23.0148 17.7391 22.6745 17.3423 22.2548 17.3423Z" fill="#7087AD"/>
</svg>
