<svg width="19" height="20" viewBox="0 0 19 20" fill="none" xmlns="http://www.w3.org/2000/svg">
<path fill-rule="evenodd" clip-rule="evenodd" d="M18.7793 9.87534C18.7793 14.9435 14.6707 19.0521 9.60255 19.0521C4.53436 19.0521 0.425781 14.9435 0.425781 9.87534C0.425781 4.80716 4.53436 0.698578 9.60255 0.698578C14.6707 0.698578 18.7793 4.80716 18.7793 9.87534ZM9.93139 7.47327C9.03882 7.84453 7.25492 8.61293 4.57971 9.77847C4.14529 9.95123 3.91773 10.1202 3.89701 10.2855C3.86201 10.5648 4.21173 10.6747 4.68798 10.8245C4.75276 10.8448 4.81988 10.866 4.88869 10.8883C5.35724 11.0406 5.98752 11.2188 6.31518 11.2259C6.6124 11.2323 6.94413 11.1098 7.31037 10.8583C9.8099 9.17103 11.1002 8.31821 11.1812 8.29983C11.2383 8.28685 11.3175 8.27055 11.3712 8.31824C11.4248 8.36593 11.4196 8.45625 11.4139 8.48048C11.3792 8.62818 10.0064 9.90446 9.29599 10.565C9.0745 10.7709 8.9174 10.9169 8.88528 10.9503C8.81334 11.025 8.74002 11.0957 8.66955 11.1636C8.23426 11.5832 7.90783 11.8979 8.68763 12.4118C9.06235 12.6587 9.3622 12.8629 9.66135 13.0667C9.98807 13.2892 10.3139 13.5111 10.7356 13.7875C10.843 13.8579 10.9456 13.931 11.0455 14.0022C11.4257 14.2733 11.7673 14.5168 12.1893 14.478C12.4345 14.4554 12.6878 14.2248 12.8164 13.5372C13.1205 11.9119 13.718 8.39059 13.8561 6.93953C13.8682 6.81239 13.853 6.64969 13.8408 6.57827C13.8286 6.50684 13.803 6.40508 13.7102 6.32975C13.6002 6.24053 13.4305 6.22172 13.3546 6.22306C13.0094 6.22914 12.4799 6.41327 9.93139 7.47327Z" fill="white"/>
<path fill-rule="evenodd" clip-rule="evenodd" d="M18.7793 9.87534C18.7793 14.9435 14.6707 19.0521 9.60255 19.0521C4.53436 19.0521 0.425781 14.9435 0.425781 9.87534C0.425781 4.80716 4.53436 0.698578 9.60255 0.698578C14.6707 0.698578 18.7793 4.80716 18.7793 9.87534ZM9.93139 7.47327C9.03882 7.84453 7.25492 8.61293 4.57971 9.77847C4.14529 9.95123 3.91773 10.1202 3.89701 10.2855C3.86201 10.5648 4.21173 10.6747 4.68798 10.8245C4.75276 10.8448 4.81988 10.866 4.88869 10.8883C5.35724 11.0406 5.98752 11.2188 6.31518 11.2259C6.6124 11.2323 6.94413 11.1098 7.31037 10.8583C9.8099 9.17103 11.1002 8.31821 11.1812 8.29983C11.2383 8.28685 11.3175 8.27055 11.3712 8.31824C11.4248 8.36593 11.4196 8.45625 11.4139 8.48048C11.3792 8.62818 10.0064 9.90446 9.29599 10.565C9.0745 10.7709 8.9174 10.9169 8.88528 10.9503C8.81334 11.025 8.74002 11.0957 8.66955 11.1636C8.23426 11.5832 7.90783 11.8979 8.68763 12.4118C9.06235 12.6587 9.3622 12.8629 9.66135 13.0667C9.98807 13.2892 10.3139 13.5111 10.7356 13.7875C10.843 13.8579 10.9456 13.931 11.0455 14.0022C11.4257 14.2733 11.7673 14.5168 12.1893 14.478C12.4345 14.4554 12.6878 14.2248 12.8164 13.5372C13.1205 11.9119 13.718 8.39059 13.8561 6.93953C13.8682 6.81239 13.853 6.64969 13.8408 6.57827C13.8286 6.50684 13.803 6.40508 13.7102 6.32975C13.6002 6.24053 13.4305 6.22172 13.3546 6.22306C13.0094 6.22914 12.4799 6.41327 9.93139 7.47327Z" fill="#A5B8D7"/>
</svg>
