<svg width="20" height="16" viewBox="0 0 20 16" fill="none" xmlns="http://www.w3.org/2000/svg">
<path d="M17.1336 4.29151C17.1452 4.44638 17.1452 4.60126 17.1452 4.75756C17.1452 9.5201 13.2171 15.0128 6.03447 15.0128V15.0099C3.91271 15.0128 1.83501 14.4518 0.0488281 13.3941C0.357351 13.4283 0.66742 13.4455 0.978262 13.4462C2.73661 13.4476 4.44469 12.903 5.82802 11.9003C4.15705 11.871 2.69176 10.8654 2.17988 9.39734C2.76522 9.50154 3.36835 9.48013 3.94286 9.33525C2.12111 8.99553 0.810469 7.51816 0.810469 5.80242C0.810469 5.78672 0.810469 5.77173 0.810469 5.75674C1.35328 6.0358 1.96105 6.19067 2.58273 6.2078C0.866915 5.14938 0.33802 3.04253 1.37416 1.3953C3.35675 3.64703 6.28191 5.01592 9.42204 5.1608C9.10733 3.90896 9.53725 2.59718 10.5517 1.71718C12.1245 0.352581 14.5981 0.422523 16.0765 1.87348C16.9511 1.71433 17.7893 1.41814 18.5563 0.998482C18.2648 1.8328 17.6547 2.54151 16.8397 2.99185C17.6137 2.90764 18.37 2.71637 19.0821 2.42446C18.5579 3.14958 17.8975 3.78121 17.1336 4.29151Z" fill="white"/>
<path d="M17.1336 4.29151C17.1452 4.44638 17.1452 4.60126 17.1452 4.75756C17.1452 9.5201 13.2171 15.0128 6.03447 15.0128V15.0099C3.91271 15.0128 1.83501 14.4518 0.0488281 13.3941C0.357351 13.4283 0.66742 13.4455 0.978262 13.4462C2.73661 13.4476 4.44469 12.903 5.82802 11.9003C4.15705 11.871 2.69176 10.8654 2.17988 9.39734C2.76522 9.50154 3.36835 9.48013 3.94286 9.33525C2.12111 8.99553 0.810469 7.51816 0.810469 5.80242C0.810469 5.78672 0.810469 5.77173 0.810469 5.75674C1.35328 6.0358 1.96105 6.19067 2.58273 6.2078C0.866915 5.14938 0.33802 3.04253 1.37416 1.3953C3.35675 3.64703 6.28191 5.01592 9.42204 5.1608C9.10733 3.90896 9.53725 2.59718 10.5517 1.71718C12.1245 0.352581 14.5981 0.422523 16.0765 1.87348C16.9511 1.71433 17.7893 1.41814 18.5563 0.998482C18.2648 1.8328 17.6547 2.54151 16.8397 2.99185C17.6137 2.90764 18.37 2.71637 19.0821 2.42446C18.5579 3.14958 17.8975 3.78121 17.1336 4.29151Z" fill="#A5B8D7"/>
</svg>
