<svg width="18" height="18" viewBox="0 0 18 18" fill="none" xmlns="http://www.w3.org/2000/svg">
<path d="M8.74768 10.5539C9.65896 10.5539 10.3977 9.81521 10.3977 8.90393C10.3977 7.99265 9.65896 7.25391 8.74768 7.25391C7.8364 7.25391 7.09766 7.99265 7.09766 8.90393C7.09766 9.81521 7.8364 10.5539 8.74768 10.5539Z" fill="#000936"/>
<path d="M8.74805 13.9367C9.41481 13.9367 10.075 13.8054 10.6911 13.5502C11.3071 13.2951 11.8668 12.9211 12.3383 12.4496C12.8097 11.9781 13.1837 11.4184 13.4389 10.8024C13.6941 10.1864 13.8254 9.52614 13.8254 8.85937C13.8254 8.19261 13.6941 7.53237 13.4389 6.91636C13.1837 6.30035 12.8097 5.74063 12.3383 5.26915C11.8668 4.79768 11.3071 4.42368 10.6911 4.16852C10.075 3.91336 9.41481 3.78203 8.74805 3.78203C7.40145 3.78203 6.11001 4.31696 5.15782 5.26915C4.20564 6.22134 3.6707 7.51278 3.6707 8.85937C3.6707 10.206 4.20564 11.4974 5.15782 12.4496C6.11001 13.4018 7.40145 13.9367 8.74805 13.9367ZM11.2519 11.3632C10.5878 12.0273 9.68717 12.4003 8.74805 12.4003C7.80893 12.4003 6.90827 12.0273 6.24421 11.3632C5.58015 10.6992 5.20709 9.79849 5.20709 8.85937C5.20709 7.92025 5.58015 7.0196 6.24421 6.35554C6.90827 5.69148 7.80893 5.31841 8.74805 5.31841C9.68717 5.31841 10.5878 5.69148 11.2519 6.35554C11.9159 7.0196 12.289 7.92025 12.289 8.85937C12.289 9.79849 11.9159 10.6992 11.2519 11.3632Z" fill="#000936" stroke="#000936" stroke-width="0.1"/>
<path d="M8.75 17.4094C13.4719 17.4094 17.3 13.5813 17.3 8.85938C17.3 4.13744 13.4719 0.309375 8.75 0.309375C4.02807 0.309375 0.2 4.13744 0.2 8.85938C0.2 13.5813 4.02807 17.4094 8.75 17.4094ZM11.3923 15.2383C10.5546 15.5853 9.65672 15.7639 8.75 15.7639C6.9188 15.7639 5.1626 15.0365 3.86775 13.7416C2.5729 12.4468 1.84545 10.6906 1.84545 8.85938C1.84545 7.02818 2.5729 5.27198 3.86775 3.97712C5.1626 2.68227 6.9188 1.95483 8.75 1.95483C9.65672 1.95483 10.5546 2.13342 11.3923 2.48041C12.23 2.82739 12.9911 3.33598 13.6322 3.97712C14.2734 4.61827 14.782 5.37942 15.129 6.21712C15.476 7.05482 15.6545 7.95266 15.6545 8.85938C15.6545 9.76609 15.476 10.6639 15.129 11.5016C14.782 12.3393 14.2734 13.1005 13.6322 13.7416C12.9911 14.3828 12.23 14.8914 11.3923 15.2383Z" fill="#000936" stroke="#000936" stroke-width="0.1"/>
</svg>
