<svg xmlns="http://www.w3.org/2000/svg" className="svg css-w1atjl" viewBox="0 0 20 20"><title>Visit our Homepage (opens in a new window)</title><path d="M15.818 15.177A7.79 7.79 0 0 0 13 2.81V3c0 1.1-.9 2-2 2H9v2c0 .55-.45 1-1 1H6v2h6c.55 0 1 .45 1 1v3h1c.819 0 1.506.48 1.818 1.177zM2.254 9.187a7.79 7.79 0 0 0 6.318 8.47v-1.071a2.055 2.055 0 0 1-2.041-2.058V13.5L2.254 9.187zm.676 7.883A9.969 9.969 0 0 1 0 10C0 4.48 4.48 0 10 0c.506 0 1 .037 1.482.11C16.302.824 20 4.98 20 10c0 5.523-4.477 10-10 10a9.969 9.969 0 0 1-7.071-2.929z" fill="#a0a0a0" ></path></svg>