<svg width="76" height="94" viewBox="0 0 76 94" fill="none" xmlns="http://www.w3.org/2000/svg">
<g filter="url(#filter0_i_38_97)">
<path d="M24.8097 42.2626L19.136 36.6245L37.6116 18.2616L56.0995 36.6306L50.4258 42.2718L37.6116 29.5379L24.8097 42.2626ZM74.9212 56.7705L38.4843 92.9791C38.3702 93.0945 38.2342 93.1862 38.0841 93.2488C37.934 93.3115 37.7729 93.3438 37.6101 93.3438C37.4473 93.3438 37.2863 93.3115 37.1362 93.2488C36.9861 93.1862 36.85 93.0945 36.736 92.9791L0.299 56.7705C0.10753 56.58 0 56.3216 0 56.0523C0 55.7831 0.10753 55.5249 0.299 55.3344L9.68075 46.0295L0.97263 37.376C0.85597 37.2626 0.76328 37.1274 0.7 36.9779C0.63672 36.8285 0.60413 36.668 0.60413 36.5059C0.60413 36.3437 0.63672 36.1831 0.7 36.0337C0.76328 35.8843 0.85597 35.749 0.97263 35.6356L36.243 0.57405C36.4229 0.39226 36.6373 0.24788 36.8739 0.14932C37.1104 0.0507601 37.3643 0 37.6208 0C37.8773 0 38.1314 0.0507601 38.3679 0.14932C38.6045 0.24788 38.8188 0.39226 38.9987 0.57405L74.4161 35.7846C74.5113 35.879 74.5869 35.9912 74.6385 36.1147C74.6901 36.2382 74.7166 36.3705 74.7166 36.5042C74.7166 36.6379 74.6901 36.7703 74.6385 36.8938C74.5869 37.0173 74.5113 37.1295 74.4161 37.2239L65.5548 46.0295L74.9212 55.3373C75.1117 55.5277 75.2188 55.7854 75.2188 56.054C75.2188 56.3225 75.1117 56.5801 74.9212 56.7705ZM15.3423 40.3884L17.6418 42.6825L36.7328 61.651C36.8468 61.7664 36.9829 61.8582 37.133 61.9209C37.2831 61.9835 37.4443 62.0156 37.6071 62.0156C37.7699 62.0156 37.9311 61.9835 38.0812 61.9209C38.2313 61.8582 38.3673 61.7664 38.4813 61.651L62.9124 37.373C63.0291 37.2597 63.1218 37.1242 63.185 36.9748C63.2483 36.8253 63.2809 36.6649 63.2809 36.5028C63.2809 36.3407 63.2483 36.1802 63.185 36.0307C63.1218 35.8813 63.0291 35.7458 62.9124 35.6325L38.4813 11.3575C38.3673 11.242 38.2313 11.1504 38.0812 11.0878C37.9311 11.0252 37.7699 10.9929 37.6071 10.9929C37.4443 10.9929 37.2831 11.0252 37.133 11.0878C36.9829 11.1504 36.8468 11.242 36.7328 11.3575L12.3018 35.6325C12.1852 35.7458 12.0925 35.8813 12.0292 36.0307C11.9659 36.1802 11.9333 36.3407 11.9333 36.5028C11.9333 36.6649 11.9659 36.8253 12.0292 36.9748C12.0925 37.1242 12.1852 37.2597 12.3018 37.373L15.3423 40.3884ZM63.4146 55.1822L59.8964 51.6678L38.3526 73.0766C38.2576 73.1713 38.1447 73.2462 38.0205 73.2975C37.8962 73.3488 37.7631 73.3752 37.6286 73.3752C37.494 73.3752 37.3608 73.3488 37.2365 73.2975C37.1123 73.2462 36.9994 73.1713 36.9044 73.0766L15.3575 51.6678L11.821 55.1822C11.7043 55.2956 11.6117 55.4308 11.5485 55.5803C11.4852 55.7297 11.4525 55.8902 11.4525 56.0523C11.4525 56.2145 11.4852 56.375 11.5485 56.5244C11.6117 56.6738 11.7043 56.8093 11.821 56.9226L36.9044 81.8487C36.9994 81.9434 37.1123 82.0185 37.2365 82.0697C37.3608 82.121 37.494 82.1475 37.6286 82.1475C37.7631 82.1475 37.8962 82.121 38.0205 82.0697C38.1447 82.0185 38.2576 81.9434 38.3526 81.8487L63.4175 56.9226C63.5342 56.8093 63.6269 56.6738 63.6902 56.5244C63.7535 56.375 63.786 56.2145 63.786 56.0523C63.786 55.8902 63.7535 55.7297 63.6902 55.5803C63.6269 55.4308 63.5342 55.2956 63.4175 55.1822H63.4146ZM28.5974 46.0295L34.2742 51.6678L37.6116 48.3481L40.9614 51.6769L46.6382 46.0295L37.6116 37.0596L28.5974 46.0295Z" fill="white"/>
</g>
<defs>
<filter id="filter0_i_38_97" x="0" y="0" width="76.125" height="94.25" filterUnits="userSpaceOnUse" color-interpolation-filters="sRGB">
<feFlood flood-opacity="0" result="BackgroundImageFix"/>
<feBlend mode="normal" in="SourceGraphic" in2="BackgroundImageFix" result="shape"/>
<feColorMatrix in="SourceAlpha" type="matrix" values="0 0 0 0 0 0 0 0 0 0 0 0 0 0 0 0 0 0 127 0" result="hardAlpha"/>
<feOffset dx="0.90625" dy="0.90625"/>
<feGaussianBlur stdDeviation="2.26562"/>
<feComposite in2="hardAlpha" operator="arithmetic" k2="-1" k3="1"/>
<feColorMatrix type="matrix" values="0 0 0 0 0.0277778 0 0 0 0 0.206667 0 0 0 0 0.416667 0 0 0 0.05 0"/>
<feBlend mode="normal" in2="shape" result="effect1_innerShadow_38_97"/>
</filter>
</defs>
</svg>
