<svg width="220" height="62" viewBox="0 0 279 62" fill="none" xmlns="http://www.w3.org/2000/svg">
<path fill-rule="evenodd" clip-rule="evenodd" d="M240.736 42.2461V18.5527H247.987V27.7092H263.021V18.5527H270.268V42.2461H263.021V33.2335H247.987V42.2461H240.736Z" fill="#050E3A"/>
<path d="M236.219 42.4249H218.704C217.683 42.4295 216.672 42.232 215.728 41.8436C214.784 41.4552 213.927 40.8836 213.205 40.162C212.484 39.4404 211.912 38.5829 211.524 37.6392C211.135 36.6955 210.938 35.6842 210.942 34.6637V26.314C210.938 25.2935 211.135 24.2822 211.524 23.3385C211.912 22.3948 212.484 21.5373 213.205 20.8157C213.927 20.0941 214.784 19.5225 215.728 19.1341C216.672 18.7457 217.683 18.5482 218.704 18.5528H236.219V24.7312H220.142C219.847 24.73 219.554 24.7889 219.282 24.9044C219.01 25.0198 218.764 25.1893 218.56 25.4027C218.35 25.5766 218.182 25.7946 218.067 26.041C217.952 26.2875 217.892 26.5564 217.893 26.8285V33.9966C217.902 34.5905 218.142 35.1576 218.562 35.5776C218.982 35.9976 219.549 36.2375 220.142 36.2465H236.219V42.4249Z" fill="#050E3A"/>
<path d="M199.612 18.5527V34.9035L182.424 18.5527H175.173V42.2461H182.424V26.1482L199.612 42.2461H206.858V18.5527H199.612Z" fill="#050E3A"/>
<path fill-rule="evenodd" clip-rule="evenodd" d="M120.139 58.28C135.205 58.28 147.419 46.0663 147.419 31C147.419 15.9337 135.205 3.72 120.139 3.72C105.072 3.72 92.8587 15.9337 92.8587 31C92.8587 46.0663 105.072 58.28 120.139 58.28ZM120.139 62C137.259 62 151.139 48.1208 151.139 31C151.139 13.8792 137.259 0 120.139 0C103.018 0 89.1387 13.8792 89.1387 31C89.1387 48.1208 103.018 62 120.139 62Z" fill="url(#paint0_linear_145_727)"/>
<path fill-rule="evenodd" clip-rule="evenodd" d="M140.243 18.5752H147.437V31.2982C147.437 33.0132 147.599 34.2574 147.921 35.0306C148.089 35.3961 148.343 35.7151 148.663 35.9598C148.982 36.2045 149.356 36.3675 149.752 36.4345C151.304 36.7268 152.883 36.8497 154.461 36.8008C157.252 36.8008 159.213 36.7426 160.343 36.6264C161.39 36.5348 162.118 36.2253 162.523 35.7064C163.022 35.0261 163.3 34.2085 163.317 33.365C163.365 32.833 163.387 32.2008 163.387 31.4727V18.5752H170.599V30.9843C170.636 32.7315 170.561 34.4792 170.372 36.2165C170.184 37.8903 169.358 39.4272 168.065 40.507C166.801 41.4801 165.292 42.0838 163.705 42.2511C162.833 42.3906 160.031 42.4719 155.299 42.4952C151.671 42.4952 149.338 42.4255 148.322 42.3557C145.34 42.1464 143.235 41.331 142.009 39.9096C141.137 38.8893 140.593 37.4011 140.378 35.4448C140.258 34.0762 140.207 32.7025 140.225 31.3288L140.243 18.5752Z" fill="#050E3A"/>
<path d="M114.873 44.3216H120.258H125.643L120.258 36.1113L114.873 44.3216Z" fill="url(#paint1_linear_145_727)"/>
<path fill-rule="evenodd" clip-rule="evenodd" d="M138.231 42.2461H130.37L120.346 23.6411L112.728 38.021L110.439 42.2461H102.29L115.61 18.5527H125.273L138.231 42.2461Z" fill="#050E3A"/>
<path d="M86.1846 18.5527V36.29C86.1898 36.3974 86.2345 36.4991 86.3102 36.5756C86.3858 36.6521 86.4871 36.6979 86.5944 36.7042H101.149L98.0312 42.2024H79.1777V18.5527H86.1846Z" fill="#050E3A"/>
<path d="M55.8648 37.0321V32.5455H73.2097V28.1068H55.8648V23.6463H73.6457V18.4795H49.1807V42.199H73.6457V37.0321H55.8648Z" fill="#050E3A"/>
<path d="M42.9916 18.5039V42.1973H35.7449L21.7443 33.176C21.6429 33.1107 21.5248 33.076 21.4042 33.076C21.2836 33.076 21.1655 33.1107 21.0641 33.176L7.24665 42.1929H0V18.5039H7.24665V34.6062L15.7098 29.2867L21.0205 25.9468C21.1675 25.8547 21.3375 25.806 21.511 25.806C21.6845 25.806 21.8545 25.8547 22.0015 25.9468L35.7449 34.6062V18.5039H42.9916Z" fill="#050E3A"/>
<defs>
<linearGradient id="paint0_linear_145_727" x1="82.7306" y1="-41.1149" x2="102.593" y2="87.4791" gradientUnits="userSpaceOnUse">
<stop stop-color="#0338D1"/>
<stop offset="0.354167" stop-color="#1CFCFC"/>
<stop offset="0.885417" stop-color="#0338D1"/>
</linearGradient>
<linearGradient id="paint1_linear_145_727" x1="125.857" y1="51.2561" x2="124.854" y2="33.0078" gradientUnits="userSpaceOnUse">
<stop stop-color="#0338D1"/>
<stop offset="0.354167" stop-color="#1CFCFC"/>
<stop offset="0.885417" stop-color="#0338D1"/>
</linearGradient>
</defs>
</svg>
