<svg width="220" height="62" viewBox="0 0 279 62" fill="none" xmlns="http://www.w3.org/2000/svg">
<g filter="url(#filter0_d_1_476)">
<path fill-rule="evenodd" clip-rule="evenodd" d="M244.736 42.2463V18.553H251.987V27.7094H267.021V18.553H274.268V42.2463H267.021V33.2338H251.987V42.2463H244.736Z" fill="white"/>
</g>
<g filter="url(#filter1_d_1_476)">
<path d="M240.218 42.4251H222.703C221.682 42.4298 220.671 42.2322 219.727 41.8438C218.783 41.4554 217.926 40.8838 217.204 40.1622C216.483 39.4406 215.911 38.5832 215.523 37.6395C215.134 36.6958 214.937 35.6845 214.941 34.664V26.3142C214.937 25.2937 215.134 24.2824 215.523 23.3387C215.911 22.395 216.483 21.5376 217.204 20.816C217.926 20.0944 218.783 19.5228 219.727 19.1344C220.671 18.746 221.682 18.5484 222.703 18.5531H240.218V24.7314H224.141C223.846 24.7302 223.553 24.7892 223.281 24.9046C223.009 25.02 222.763 25.1895 222.559 25.4029C222.349 25.5768 222.181 25.7948 222.066 26.0413C221.951 26.2878 221.891 26.5566 221.892 26.8287V33.9968C221.901 34.5907 222.141 35.1578 222.561 35.5778C222.981 35.9978 223.548 36.2378 224.141 36.2468H240.218V42.4251Z" fill="white"/>
</g>
<g filter="url(#filter2_d_1_476)">
<path d="M203.611 18.553V34.9037L186.423 18.553H179.172V42.2463H186.423V26.1484L203.611 42.2463H210.857V18.553H203.611Z" fill="white"/>
</g>
<path fill-rule="evenodd" clip-rule="evenodd" d="M124.139 58.28C139.205 58.28 151.419 46.0663 151.419 31C151.419 15.9337 139.205 3.72 124.139 3.72C109.072 3.72 96.8587 15.9337 96.8587 31C96.8587 46.0663 109.072 58.28 124.139 58.28ZM124.139 62C141.259 62 155.139 48.1208 155.139 31C155.139 13.8792 141.259 0 124.139 0C107.018 0 93.1387 13.8792 93.1387 31C93.1387 48.1208 107.018 62 124.139 62Z" fill="url(#paint0_linear_1_476)"/>
<g filter="url(#filter3_d_1_476)">
<path fill-rule="evenodd" clip-rule="evenodd" d="M144.243 18.5751H151.437V31.2981C151.437 33.0131 151.599 34.2572 151.921 35.0305C152.089 35.396 152.343 35.715 152.663 35.9597C152.982 36.2044 153.356 36.3673 153.752 36.4344C155.304 36.7267 156.883 36.8495 158.461 36.8007C161.252 36.8007 163.213 36.7425 164.343 36.6262C165.39 36.5347 166.118 36.2252 166.523 35.7063C167.022 35.026 167.3 34.2083 167.317 33.3648C167.365 32.8329 167.387 32.2007 167.387 31.4726V18.5751H174.599V30.9842C174.636 32.7313 174.561 34.4791 174.372 36.2164C174.184 37.8902 173.358 39.4271 172.065 40.5069C170.801 41.48 169.292 42.0837 167.705 42.251C166.833 42.3905 164.031 42.4718 159.299 42.4951C155.671 42.4951 153.338 42.4254 152.322 42.3556C149.34 42.1463 147.235 41.3309 146.009 39.9095C145.137 38.8892 144.593 37.4009 144.378 35.4447C144.258 34.0761 144.207 32.7024 144.225 31.3287L144.243 18.5751Z" fill="white"/>
</g>
<path d="M118.873 44.3219H124.258H129.643L124.258 36.1117L118.873 44.3219Z" fill="url(#paint1_linear_1_476)"/>
<path fill-rule="evenodd" clip-rule="evenodd" d="M142.231 42.2463H134.37L124.346 23.6413L116.728 38.0213L114.439 42.2463H106.29L119.61 18.553H129.273L142.231 42.2463Z" fill="white"/>
<g filter="url(#filter4_d_1_476)">
<path d="M90.1846 18.553V36.2902C90.1898 36.3977 90.2345 36.4994 90.3102 36.5758C90.3858 36.6523 90.4871 36.6981 90.5944 36.7044H105.149L102.031 42.2027H83.1777V18.553H90.1846Z" fill="white"/>
</g>
<g filter="url(#filter5_d_1_476)">
<path d="M59.8648 37.0323V32.5456H77.2097V28.1069H59.8648V23.6464H77.6457V18.4796H53.1807V42.1991H77.6457V37.0323H59.8648Z" fill="white"/>
</g>
<g filter="url(#filter6_d_1_476)">
<path d="M46.9916 18.5038V42.1971H39.7449L25.7443 33.1759C25.6429 33.1106 25.5248 33.0759 25.4042 33.0759C25.2836 33.0759 25.1655 33.1106 25.0641 33.1759L11.2466 42.1928H4V18.5038H11.2466V34.6061L19.7098 29.2865L25.0205 25.9467C25.1675 25.8546 25.3375 25.8058 25.511 25.8058C25.6845 25.8058 25.8545 25.8546 26.0015 25.9467L39.7449 34.6061V18.5038H46.9916Z" fill="white"/>
</g>
<defs>
<filter id="filter0_d_1_476" x="240.736" y="18.553" width="37.5312" height="31.6934" filterUnits="userSpaceOnUse" color-interpolation-filters="sRGB">
<feFlood flood-opacity="0" result="BackgroundImageFix"/>
<feColorMatrix in="SourceAlpha" type="matrix" values="0 0 0 0 0 0 0 0 0 0 0 0 0 0 0 0 0 0 127 0" result="hardAlpha"/>
<feOffset dy="4"/>
<feGaussianBlur stdDeviation="2"/>
<feComposite in2="hardAlpha" operator="out"/>
<feColorMatrix type="matrix" values="0 0 0 0 0 0 0 0 0 0.0313726 0 0 0 0 0.188235 0 0 0 0.15 0"/>
<feBlend mode="normal" in2="BackgroundImageFix" result="effect1_dropShadow_1_476"/>
<feBlend mode="normal" in="SourceGraphic" in2="effect1_dropShadow_1_476" result="shape"/>
</filter>
<filter id="filter1_d_1_476" x="210.941" y="18.553" width="33.2764" height="31.8722" filterUnits="userSpaceOnUse" color-interpolation-filters="sRGB">
<feFlood flood-opacity="0" result="BackgroundImageFix"/>
<feColorMatrix in="SourceAlpha" type="matrix" values="0 0 0 0 0 0 0 0 0 0 0 0 0 0 0 0 0 0 127 0" result="hardAlpha"/>
<feOffset dy="4"/>
<feGaussianBlur stdDeviation="2"/>
<feComposite in2="hardAlpha" operator="out"/>
<feColorMatrix type="matrix" values="0 0 0 0 0 0 0 0 0 0.0313726 0 0 0 0 0.188235 0 0 0 0.15 0"/>
<feBlend mode="normal" in2="BackgroundImageFix" result="effect1_dropShadow_1_476"/>
<feBlend mode="normal" in="SourceGraphic" in2="effect1_dropShadow_1_476" result="shape"/>
</filter>
<filter id="filter2_d_1_476" x="175.172" y="18.553" width="39.6855" height="31.6934" filterUnits="userSpaceOnUse" color-interpolation-filters="sRGB">
<feFlood flood-opacity="0" result="BackgroundImageFix"/>
<feColorMatrix in="SourceAlpha" type="matrix" values="0 0 0 0 0 0 0 0 0 0 0 0 0 0 0 0 0 0 127 0" result="hardAlpha"/>
<feOffset dy="4"/>
<feGaussianBlur stdDeviation="2"/>
<feComposite in2="hardAlpha" operator="out"/>
<feColorMatrix type="matrix" values="0 0 0 0 0 0 0 0 0 0.0313726 0 0 0 0 0.188235 0 0 0 0.15 0"/>
<feBlend mode="normal" in2="BackgroundImageFix" result="effect1_dropShadow_1_476"/>
<feBlend mode="normal" in="SourceGraphic" in2="effect1_dropShadow_1_476" result="shape"/>
</filter>
<filter id="filter3_d_1_476" x="140.222" y="16.5751" width="42.3867" height="35.92" filterUnits="userSpaceOnUse" color-interpolation-filters="sRGB">
<feFlood flood-opacity="0" result="BackgroundImageFix"/>
<feColorMatrix in="SourceAlpha" type="matrix" values="0 0 0 0 0 0 0 0 0 0 0 0 0 0 0 0 0 0 127 0" result="hardAlpha"/>
<feOffset dx="2" dy="4"/>
<feGaussianBlur stdDeviation="3"/>
<feComposite in2="hardAlpha" operator="out"/>
<feColorMatrix type="matrix" values="0 0 0 0 0 0 0 0 0 0.0313726 0 0 0 0 0.188235 0 0 0 0.15 0"/>
<feBlend mode="normal" in2="BackgroundImageFix" result="effect1_dropShadow_1_476"/>
<feBlend mode="normal" in="SourceGraphic" in2="effect1_dropShadow_1_476" result="shape"/>
</filter>
<filter id="filter4_d_1_476" x="77.1777" y="12.553" width="33.9707" height="35.6497" filterUnits="userSpaceOnUse" color-interpolation-filters="sRGB">
<feFlood flood-opacity="0" result="BackgroundImageFix"/>
<feColorMatrix in="SourceAlpha" type="matrix" values="0 0 0 0 0 0 0 0 0 0 0 0 0 0 0 0 0 0 127 0" result="hardAlpha"/>
<feOffset/>
<feGaussianBlur stdDeviation="3"/>
<feComposite in2="hardAlpha" operator="out"/>
<feColorMatrix type="matrix" values="0 0 0 0 0 0 0 0 0 0.0313726 0 0 0 0 0.188235 0 0 0 0.15 0"/>
<feBlend mode="normal" in2="BackgroundImageFix" result="effect1_dropShadow_1_476"/>
<feBlend mode="normal" in="SourceGraphic" in2="effect1_dropShadow_1_476" result="shape"/>
</filter>
<filter id="filter5_d_1_476" x="49.1807" y="18.4796" width="32.4648" height="31.7195" filterUnits="userSpaceOnUse" color-interpolation-filters="sRGB">
<feFlood flood-opacity="0" result="BackgroundImageFix"/>
<feColorMatrix in="SourceAlpha" type="matrix" values="0 0 0 0 0 0 0 0 0 0 0 0 0 0 0 0 0 0 127 0" result="hardAlpha"/>
<feOffset dy="4"/>
<feGaussianBlur stdDeviation="2"/>
<feComposite in2="hardAlpha" operator="out"/>
<feColorMatrix type="matrix" values="0 0 0 0 0 0 0 0 0 0.0313726 0 0 0 0 0.188235 0 0 0 0.15 0"/>
<feBlend mode="normal" in2="BackgroundImageFix" result="effect1_dropShadow_1_476"/>
<feBlend mode="normal" in="SourceGraphic" in2="effect1_dropShadow_1_476" result="shape"/>
</filter>
<filter id="filter6_d_1_476" x="0" y="18.5038" width="50.9912" height="31.6934" filterUnits="userSpaceOnUse" color-interpolation-filters="sRGB">
<feFlood flood-opacity="0" result="BackgroundImageFix"/>
<feColorMatrix in="SourceAlpha" type="matrix" values="0 0 0 0 0 0 0 0 0 0 0 0 0 0 0 0 0 0 127 0" result="hardAlpha"/>
<feOffset dy="4"/>
<feGaussianBlur stdDeviation="2"/>
<feComposite in2="hardAlpha" operator="out"/>
<feColorMatrix type="matrix" values="0 0 0 0 0 0 0 0 0 0.0313726 0 0 0 0 0.188235 0 0 0 0.15 0"/>
<feBlend mode="normal" in2="BackgroundImageFix" result="effect1_dropShadow_1_476"/>
<feBlend mode="normal" in="SourceGraphic" in2="effect1_dropShadow_1_476" result="shape"/>
</filter>
<linearGradient id="paint0_linear_1_476" x1="86.7306" y1="-41.1149" x2="106.593" y2="87.4791" gradientUnits="userSpaceOnUse">
<stop stop-color="#0338D1"/>
<stop offset="0.354167" stop-color="#1CFCFC"/>
<stop offset="0.885417" stop-color="#0338D1"/>
</linearGradient>
<linearGradient id="paint1_linear_1_476" x1="129.857" y1="51.2565" x2="128.854" y2="33.0082" gradientUnits="userSpaceOnUse">
<stop stop-color="#0338D1"/>
<stop offset="0.354167" stop-color="#1CFCFC"/>
<stop offset="0.885417" stop-color="#0338D1"/>
</linearGradient>
</defs>
</svg>
