<svg xmlns="http://www.w3.org/2000/svg" viewBox="0 0 852 249.5"><defs><style>.cls-1{fill:#0069bf;}</style></defs><g id="Layer_2" data-name="Layer 2"><g id="Logo1"><g id="Layer_2-2" data-name="Layer 2"><g id="Layer_1-2" data-name="Layer 1-2"><polygon points="0 249.5 44.4 217.2 44.4 41.5 0 73.8 0 249.5"/><polygon points="151.6 249.5 107.3 217.2 107.3 41.5 151.6 73.8 151.6 249.5"/><polygon points="97.8 200.5 53.5 200.5 53.5 16.2 75.8 0 97.8 16.1 97.8 200.5"/><rect x="311.3" y="101.2" width="67.6" height="15.56"/><rect x="312" y="129" width="66.6" height="15.56"/><rect x="312" y="156.7" width="67" height="15.56"/><path d="M258.8,101.2l12.1,45.6,10.7-45.6h19.7l-19.2,71H262.8L250.6,128l-12.1,44.2H219.2l-19.3-71h19.8l10.7,45.6,12.1-45.6Z"/><path d="M412.5,158h37v14.2H394.2v-71h18.3Z"/><path d="M479.4,172.2H459.6l26.9-71h20.3l26.8,71H513.9l-4.6-12.7H483.9Zm9.1-25.9h16.2l-8.1-23.8Z"/><path d="M592.4,101.2h18.3v51.7c0,7.1-1.6,12.2-4.8,15.5s-8.4,4.8-15.5,4.8H567.1c-7.1,0-12.3-1.6-15.5-4.8s-4.8-8.4-4.8-15.5V101.2h18.3v51.7c0,4,2,6.1,6,6.1h15.3c4,0,6-2.1,6-6.1Z"/><path d="M694.9,172.2H675.6l-24.3-42.6v42.6H633v-71h19.3l24.3,42.6V101.2h18.3Z"/><path d="M733.4,135.5v-14c0-4.1,2-6.1,6.1-6.1h32.4V101.2H735.4c-7.1,0-12.2,1.6-15.4,4.8s-4.9,8.4-4.9,15.5v30.3c0,7.1,1.7,12.2,4.9,15.4s8.3,4.9,15.4,4.9h36.5V157.9H739.5c-4.1,0-6.1-2.1-6.1-6.1Z"/><path d="M852,172.2H833.8V143.3H808.4v28.9H790.2v-71h18.2v27.9h25.4V101.2H852Z"/><rect className="cls-1" x="59.1" y="64.9" width="32.2" height="5.09"/><rect className="cls-1" x="59.4" y="73.9" width="31.7" height="5.09"/><rect className="cls-1" x="59.4" y="83" width="31.9" height="5.09"/></g></g></g></g></svg>