<svg width="34" height="35" viewBox="0 0 34 35" fill="none" xmlns="http://www.w3.org/2000/svg">
<path fill-rule="evenodd" clip-rule="evenodd" d="M17 0.206053C7.61116 0.206052 2.30699e-06 7.81721 1.48619e-06 17.2061C6.65389e-07 26.5949 7.61116 34.2061 17 34.2061C26.3888 34.2061 34 26.5949 34 17.2061C34 7.81721 26.3888 0.206054 17 0.206053ZM18.748 22.5027C19.0242 22.5027 19.248 22.7265 19.248 23.0027L19.248 26.3545C19.248 26.6306 19.0242 26.8545 18.748 26.8545L15.2503 26.8545C14.9742 26.8545 14.7503 26.6306 14.7503 26.3545L14.7503 23.0027C14.7503 22.7265 14.9742 22.5027 15.2503 22.5027L18.748 22.5027ZM18.748 7.55794C19.0242 7.55794 19.248 7.7818 19.248 8.05794L19.248 19.2028C19.248 19.4789 19.0242 19.7028 18.748 19.7028L15.2503 19.7028C14.9742 19.7028 14.7503 19.4789 14.7503 19.2028L14.7503 8.05794C14.7503 7.7818 14.9742 7.55794 15.2503 7.55794L18.748 7.55794Z" fill="#E60000"/>
</svg>
