<svg width="24" height="30" viewBox="0 0 24 30" fill="none" xmlns="http://www.w3.org/2000/svg">
<g clip-path="url(#clip0_1_104)">
<path d="M23.3447 10.3141C23.3134 9.64324 23.3134 9.00291 23.3134 8.36258C23.3134 7.84445 22.9013 7.44791 22.3621 7.44791C18.3992 7.44791 15.3875 6.34994 12.8831 4.00187C12.6996 3.83985 12.4628 3.75037 12.2174 3.75037C11.972 3.75037 11.7352 3.83985 11.5517 4.00187C9.04669 6.34994 6.03502 7.44791 2.07207 7.44791C1.53348 7.44791 1.1214 7.84445 1.1214 8.36258C1.1214 9.00291 1.1214 9.64324 1.08947 10.3141C0.962955 16.718 0.772576 25.4999 11.9005 29.1898L12.2174 29.2497L12.5343 29.1898C23.6303 25.4999 23.4719 16.748 23.3447 10.3141ZM18.1034 14.0962L11.2571 20.5007C11.2426 20.5143 11.2276 20.5275 11.2119 20.5402C10.9834 20.7315 10.6949 20.8374 10.3962 20.8397H10.3564C10.1963 20.8367 10.0386 20.7997 9.89398 20.7312C9.74936 20.6627 9.62111 20.5643 9.51781 20.4426L6.28684 16.8845C6.2234 16.8147 6.17449 16.7331 6.14292 16.6445C6.11135 16.5558 6.09774 16.4617 6.1029 16.3678C6.10805 16.2739 6.13185 16.1819 6.17294 16.0971C6.21402 16.0124 6.27157 15.9366 6.34227 15.874L7.06522 15.2325C7.20679 15.1076 7.39229 15.0433 7.58131 15.0537C7.77032 15.0642 7.94753 15.1484 8.07433 15.2882L10.0209 17.4356C10.0849 17.5061 10.1624 17.5631 10.2489 17.6033C10.3354 17.6435 10.4291 17.6661 10.5246 17.6698C10.62 17.6735 10.7152 17.6582 10.8046 17.6248C10.894 17.5913 10.9757 17.5405 11.045 17.4752L16.4581 12.3591C16.5268 12.2942 16.6077 12.2435 16.6963 12.2099C16.7848 12.1763 16.8791 12.1604 16.9739 12.1633C17.0686 12.1661 17.1618 12.1876 17.2481 12.2264C17.3344 12.2653 17.4122 12.3208 17.4768 12.3897L18.1413 13.0905C18.2703 13.2288 18.339 13.4122 18.3323 13.6006C18.3256 13.7891 18.2442 13.9673 18.1058 14.0962H18.1034Z" fill="#A5B8D7"/>
</g>
<defs>
<clipPath id="clip0_1_104">
<rect width="22.3125" height="25.5" fill="white" transform="translate(1.0625 3.75)"/>
</clipPath>
</defs>
</svg>
