<svg width="22" height="25" viewBox="0 0 22 25" fill="none" xmlns="http://www.w3.org/2000/svg">
<path d="M21.973 6.43505C21.9415 5.77733 21.9415 5.14955 21.9415 4.52178C21.9415 4.01322 21.5352 3.62445 21.0041 3.62445C17.0967 3.62445 14.1272 2.5486 11.6573 0.246567C11.4764 0.0877283 11.2428 0 11.0009 0C10.759 0 10.5254 0.0877283 10.3445 0.246567C7.87518 2.5486 4.90569 3.62445 0.99825 3.62445C0.466605 3.62445 0.0602958 4.01322 0.0602958 4.52178C0.0602958 5.14955 0.0602946 5.77733 0.0294057 6.43505C-0.0983079 12.7134 -0.286016 21.3225 10.6867 24.94L10.9991 24.9987L11.3122 24.94C22.2522 21.3225 22.0959 12.7428 21.973 6.43505ZM17.3301 10.4419L10.5768 16.7208C10.5548 16.742 10.5316 16.7619 10.5073 16.7795C10.2086 17.0259 9.83232 17.1613 9.44338 17.1624H9.40418C9.18697 17.1592 8.97292 17.1104 8.77621 17.0193C8.57949 16.9282 8.40459 16.7968 8.26307 16.6339L5.08271 13.1509C4.98284 13.0426 4.90589 12.9156 4.85641 12.7774C4.80694 12.6392 4.78593 12.4927 4.79461 12.3464C4.80228 12.2 4.83944 12.0566 4.9039 11.9246C4.96837 11.7926 5.05885 11.6746 5.17003 11.5776L5.88285 10.9493C6.10506 10.7559 6.3952 10.6567 6.69076 10.6728C6.98632 10.6889 7.26362 10.8192 7.46293 11.0356L9.3822 13.1409C9.40811 13.1696 9.43963 13.1928 9.47484 13.2092C9.51006 13.2255 9.54825 13.2347 9.58713 13.236C9.62599 13.2378 9.66481 13.2317 9.70118 13.2181C9.73755 13.2044 9.77071 13.1836 9.79861 13.1568L15.1364 8.14103C15.2438 8.03973 15.3704 7.96056 15.509 7.90814C15.6476 7.85571 15.7954 7.83107 15.9437 7.83565C16.0921 7.83972 16.2382 7.87297 16.3734 7.93346C16.5086 7.99396 16.6303 8.08049 16.7314 8.18801L17.3794 8.87627C17.5814 9.09121 17.6894 9.37636 17.6797 9.6696C17.67 9.96284 17.5435 10.2404 17.3278 10.4419H17.3301Z" fill="#7087AD"/>
</svg>
