<svg width="23" height="15" viewBox="0 0 23 15" fill="none" xmlns="http://www.w3.org/2000/svg">
<path d="M22.3328 1.8418V7.73242C22.3328 8.02535 22.2164 8.30628 22.0093 8.51341C21.8022 8.72055 21.5212 8.83691 21.2283 8.83691C20.9354 8.83691 20.6544 8.72055 20.4473 8.51341C20.2402 8.30628 20.1238 8.02535 20.1238 7.73242V4.51099L13.1747 11.4601C13.0721 11.5631 12.9502 11.6447 12.8159 11.7005C12.6817 11.7562 12.5377 11.7849 12.3924 11.7849C12.247 11.7849 12.1031 11.7562 11.9688 11.7005C11.8346 11.6447 11.7126 11.5631 11.61 11.4601L8.71072 8.56079L2.86612 14.4054C2.65769 14.6111 2.37662 14.7265 2.08377 14.7265C1.79091 14.7265 1.50984 14.6111 1.30142 14.4054C1.19845 14.3028 1.11675 14.1809 1.061 14.0466C1.00526 13.9123 0.976562 13.7684 0.976562 13.623C0.976562 13.4777 1.00526 13.3337 1.061 13.1995C1.11675 13.0652 1.19845 12.9433 1.30142 12.8407L7.92837 6.21374C8.03098 6.11078 8.15291 6.02908 8.28716 5.97333C8.42142 5.91758 8.56535 5.88889 8.71072 5.88889C8.85609 5.88889 9.00002 5.91758 9.13428 5.97333C9.26853 6.02908 9.39046 6.11078 9.49307 6.21374L12.3924 9.11304L18.5591 2.94629H15.3377C15.0447 2.94629 14.7638 2.82992 14.5567 2.62279C14.3495 2.41566 14.2332 2.13473 14.2332 1.8418C14.2332 1.54887 14.3495 1.26794 14.5567 1.0608C14.7638 0.85367 15.0447 0.737305 15.3377 0.737305H21.2283C21.5212 0.737305 21.8022 0.85367 22.0093 1.0608C22.2164 1.26794 22.3328 1.54887 22.3328 1.8418Z" fill="#C3D4EF"/>
</svg>
