<svg width="18" height="18" viewBox="0 0 18 18" fill="none" xmlns="http://www.w3.org/2000/svg">
<path d="M8.84961 17.9094C13.5715 17.9094 17.3996 14.0813 17.3996 9.35938C17.3996 4.63744 13.5715 0.809375 8.84961 0.809375C4.12768 0.809375 0.299609 4.63744 0.299609 9.35938C0.299609 14.0813 4.12768 17.9094 8.84961 17.9094ZM11.4919 15.7383C10.6542 16.0853 9.75633 16.2639 8.84961 16.2639C7.01841 16.2639 5.26221 15.5365 3.96736 14.2416C2.67251 12.9468 1.94506 11.1906 1.94506 9.35938C1.94506 7.52818 2.67251 5.77198 3.96736 4.47712C5.26221 3.18227 7.01841 2.45483 8.84961 2.45483C9.75633 2.45483 10.6542 2.63342 11.4919 2.98041C12.3296 3.32739 13.0907 3.83598 13.7319 4.47712C14.373 5.11827 14.8816 5.87942 15.2286 6.71712C15.5756 7.55482 15.7542 8.45266 15.7542 9.35938C15.7542 10.2661 15.5756 11.1639 15.2286 12.0016C14.8816 12.8393 14.373 13.6005 13.7319 14.2416C13.0907 14.8828 12.3296 15.3914 11.4919 15.7383Z" fill="#3D455F" stroke="#3D455F" stroke-width="0.1"/>
<path d="M6.10307 12.8498C5.8869 12.8498 5.70889 12.7798 5.56902 12.64C5.42915 12.5001 5.35616 12.3252 5.35006 12.1151C5.34345 11.9056 5.41007 11.7309 5.54994 11.5911L7.78151 9.35972L5.56902 7.14745C5.42915 7.0076 5.35921 6.8296 5.35921 6.61346C5.35921 6.39731 5.42915 6.21932 5.56902 6.07946C5.70889 5.9396 5.88385 5.86637 6.09391 5.85976C6.30346 5.85365 6.47817 5.92053 6.61804 6.06039L8.84961 8.29173L11.0621 6.07946C11.202 5.9396 11.38 5.86968 11.5962 5.86968C11.8123 5.86968 11.9903 5.9396 12.1302 6.07946C12.2701 6.21932 12.3431 6.39401 12.3492 6.60354C12.3558 6.81358 12.2891 6.98853 12.1493 7.12838L9.91771 9.35972L12.1302 11.572C12.2701 11.7119 12.34 11.8898 12.34 12.106C12.34 12.3221 12.2701 12.5001 12.1302 12.64C11.9903 12.7798 11.8156 12.8528 11.6061 12.8589C11.396 12.8655 11.221 12.7989 11.0812 12.6591L8.84961 10.4277L6.63712 12.64C6.49725 12.7798 6.31923 12.8498 6.10307 12.8498Z" fill="#3D455F"/>
</svg>
