<svg width="22" height="22" viewBox="0 0 22 22" fill="none" xmlns="http://www.w3.org/2000/svg">
<path d="M7.96609 5.39442C5.43085 8.01748 5.98409 12.3705 8.88816 14.2989C8.98385 14.3625 9.11116 14.3499 9.19335 14.2696C9.80473 13.6722 10.3219 13.0935 10.7748 12.3576C10.8441 12.2451 10.801 12.099 10.6848 12.036C10.2418 11.796 9.80103 11.346 9.5529 10.8707L9.5526 10.8709C9.25536 10.279 9.15417 9.61551 9.31153 8.9303C9.3117 8.93035 9.31187 8.93039 9.31204 8.93039C9.49311 8.05313 10.4349 7.23709 11.1542 6.48239C11.1527 6.48188 11.1512 6.48134 11.1497 6.48083L13.8447 3.73017C14.9188 2.634 16.6854 2.62496 17.7705 3.71011C18.8667 4.78409 18.8848 6.55962 17.8108 7.65575L16.1784 9.33442C16.1028 9.41211 16.0783 9.52546 16.1137 9.62791C16.4896 10.7179 16.582 12.2547 16.3301 13.4158C16.3231 13.4483 16.3632 13.4696 16.3864 13.4459L19.8607 9.89984C22.0802 7.6346 22.0613 3.94648 19.8189 1.70402C17.5304 -0.58447 13.8048 -0.565425 11.5398 1.74627L7.98001 5.37953C7.9753 5.38449 7.97084 5.38954 7.96609 5.39442Z" fill="#A5B8D7"/>
<path d="M7.96609 5.39442C5.43085 8.01748 5.98409 12.3705 8.88816 14.2989C8.98385 14.3625 9.11116 14.3499 9.19335 14.2696C9.80473 13.6722 10.3219 13.0935 10.7748 12.3576C10.8441 12.2451 10.801 12.099 10.6848 12.036C10.2418 11.796 9.80103 11.346 9.5529 10.8707L9.5526 10.8709C9.25536 10.279 9.15417 9.61551 9.31153 8.9303C9.3117 8.93035 9.31187 8.93039 9.31204 8.93039C9.49311 8.05313 10.4349 7.23709 11.1542 6.48239C11.1527 6.48188 11.1512 6.48134 11.1497 6.48083L13.8447 3.73017C14.9188 2.634 16.6854 2.62496 17.7705 3.71011C18.8667 4.78409 18.8848 6.55962 17.8108 7.65575L16.1784 9.33442C16.1028 9.41211 16.0783 9.52546 16.1137 9.62791C16.4896 10.7179 16.582 12.2547 16.3301 13.4158C16.3231 13.4483 16.3632 13.4696 16.3864 13.4459L19.8607 9.89984C22.0802 7.6346 22.0613 3.94648 19.8189 1.70402C17.5304 -0.58447 13.8048 -0.565425 11.5398 1.74627L7.98001 5.37953C7.9753 5.38449 7.97084 5.38954 7.96609 5.39442Z" fill="white"/>
<path d="M14.4642 14.7983C14.4641 14.7985 14.464 14.7986 14.464 14.7987C14.4662 14.7978 14.4683 14.7969 14.4705 14.7959C15.1795 13.4994 15.3191 12.0124 14.9868 10.5628L14.9853 10.5644L14.9837 10.5637C14.6681 9.27258 13.8024 7.99054 12.6265 7.2012C12.5254 7.1333 12.3638 7.14116 12.2691 7.21776C11.6735 7.69936 11.0905 8.31692 10.7058 9.105C10.6454 9.22873 10.6906 9.37735 10.8097 9.44647C11.2561 9.70566 11.6593 10.0851 11.9293 10.5889L11.9297 10.5886C12.1401 10.9445 12.3474 11.6198 12.2131 12.3454C12.213 12.3454 12.2129 12.3454 12.2128 12.3454C12.0875 13.3073 11.1161 14.1897 10.3438 14.9848L10.3442 14.9852C9.75638 15.5863 8.26207 17.1097 7.66372 17.721C6.58975 18.8171 4.81421 18.8352 3.71808 17.7613C2.62196 16.6873 2.60384 14.9118 3.67781 13.8156L5.31506 12.1319C5.38927 12.0556 5.41449 11.9447 5.38149 11.8435C5.01795 10.7281 4.91835 9.22588 5.14782 8.06605C5.15421 8.03372 5.11444 8.01308 5.09136 8.03662L1.66932 11.5293C-0.572886 13.8178 -0.553883 17.5437 1.71161 19.8092C3.99998 22.0513 7.70673 22.0134 9.94885 19.7251C10.7278 18.8538 14.0621 15.7667 14.4642 14.7983Z" fill="#A5B8D7"/>
<path d="M14.4642 14.7983C14.4641 14.7985 14.464 14.7986 14.464 14.7987C14.4662 14.7978 14.4683 14.7969 14.4705 14.7959C15.1795 13.4994 15.3191 12.0124 14.9868 10.5628L14.9853 10.5644L14.9837 10.5637C14.6681 9.27258 13.8024 7.99054 12.6265 7.2012C12.5254 7.1333 12.3638 7.14116 12.2691 7.21776C11.6735 7.69936 11.0905 8.31692 10.7058 9.105C10.6454 9.22873 10.6906 9.37735 10.8097 9.44647C11.2561 9.70566 11.6593 10.0851 11.9293 10.5889L11.9297 10.5886C12.1401 10.9445 12.3474 11.6198 12.2131 12.3454C12.213 12.3454 12.2129 12.3454 12.2128 12.3454C12.0875 13.3073 11.1161 14.1897 10.3438 14.9848L10.3442 14.9852C9.75638 15.5863 8.26207 17.1097 7.66372 17.721C6.58975 18.8171 4.81421 18.8352 3.71808 17.7613C2.62196 16.6873 2.60384 14.9118 3.67781 13.8156L5.31506 12.1319C5.38927 12.0556 5.41449 11.9447 5.38149 11.8435C5.01795 10.7281 4.91835 9.22588 5.14782 8.06605C5.15421 8.03372 5.11444 8.01308 5.09136 8.03662L1.66932 11.5293C-0.572886 13.8178 -0.553883 17.5437 1.71161 19.8092C3.99998 22.0513 7.70673 22.0134 9.94885 19.7251C10.7278 18.8538 14.0621 15.7667 14.4642 14.7983Z" fill="white"/>
</svg>
