<svg width="26" height="20" viewBox="0 0 26 20" fill="none" xmlns="http://www.w3.org/2000/svg">
<path d="M24.3734 0.778395C24.0757 0.571642 23.7306 0.418556 23.3595 0.328651C22.9983 0.257103 22.6223 0.257103 22.2611 0.328651C21.893 0.372413 21.5389 0.476997 21.2191 0.636371C20.8961 0.788319 20.6172 0.998497 20.4024 1.25181L9.75671 13.0872L5.16612 8.13999C4.9606 7.85484 4.68149 7.61216 4.34938 7.42986C4.02375 7.28614 3.67136 7.19008 3.30735 7.14582C2.93999 7.10565 2.56682 7.12679 2.2092 7.20802C1.85158 7.28926 1.51654 7.429 1.22327 7.61923C0.930206 7.81033 0.689982 8.05261 0.519196 8.32935C0.329574 8.59812 0.205143 8.89578 0.153076 9.20517C0.0974122 9.51111 0.0974122 9.82239 0.153076 10.1283C0.264674 10.4267 0.43612 10.7069 0.660012 10.9568L7.53182 18.3184C7.79649 18.5992 8.13352 18.8258 8.51753 18.9812C8.90374 19.1384 9.32759 19.2194 9.75671 19.2179C10.188 19.212 10.612 19.1229 10.9959 18.9575C11.3799 18.8021 11.7169 18.5755 11.9816 18.2947L24.8522 4.09229C25.0747 3.84515 25.2374 3.56366 25.3309 3.26382C25.4011 2.95096 25.4011 2.62985 25.3309 2.31699C25.2876 2.00927 25.1727 1.71171 24.993 1.44117C24.8268 1.19558 24.618 0.972194 24.3734 0.778395Z" fill="white"/>
</svg>
