<svg width="24" height="24" viewBox="0 0 24 24" fill="none" xmlns="http://www.w3.org/2000/svg">
<path d="M11.9804 13.3788C12.7419 13.3788 13.3593 12.7615 13.3593 11.9999C13.3593 11.2384 12.7419 10.6211 11.9804 10.6211C11.2189 10.6211 10.6016 11.2384 10.6016 11.9999C10.6016 12.7615 11.2189 13.3788 11.9804 13.3788Z" fill="#7087AD"/>
<path d="M12 0C5.4 0 0 5.4 0 12C0 18.6 5.4 24 12 24C18.6 24 24 18.6 24 12C24 5.4 18.6 0 12 0ZM17.9143 7.11429L15.1714 14.6571C15.1345 14.7785 15.0683 14.8889 14.9786 14.9786C14.8889 15.0683 14.7785 15.1345 14.6571 15.1714L7.11429 17.9143C6.25714 18.1714 5.74286 17.4857 6 16.8L8.74286 9.25714C8.77977 9.13579 8.84599 9.02538 8.93569 8.93569C9.02538 8.84599 9.13579 8.77977 9.25714 8.74286L16.8 6C17.4 5.82857 18.1714 6.25714 17.9143 7.11429V7.11429Z" fill="#7087AD"/>
</svg>
