<svg width="27" height="27" viewBox="0 0 27 27" fill="none" xmlns="http://www.w3.org/2000/svg">
<path d="M16.082 8.19604H3.16536C1.74066 8.19604 0.582031 9.35467 0.582031 10.7794V23.696C0.582031 25.1208 1.74066 26.2794 3.16536 26.2794H16.082C17.5067 26.2794 18.6654 25.1208 18.6654 23.696V10.7794C18.6654 9.35467 17.5067 8.19604 16.082 8.19604Z" fill="white"/>
<path d="M16.082 8.19604H3.16536C1.74066 8.19604 0.582031 9.35467 0.582031 10.7794V23.696C0.582031 25.1208 1.74066 26.2794 3.16536 26.2794H16.082C17.5067 26.2794 18.6654 25.1208 18.6654 23.696V10.7794C18.6654 9.35467 17.5067 8.19604 16.082 8.19604Z" fill="#C3D3F3"/>
<path d="M23.832 0.446045H10.9154C10.2302 0.446045 9.57314 0.718212 9.08868 1.20269C8.6042 1.68716 8.33203 2.34424 8.33203 3.02938V5.61271H18.6654C19.3505 5.61271 20.0075 5.88488 20.492 6.36936C20.9765 6.85382 21.2487 7.51091 21.2487 8.19605V18.5294H23.832C24.5171 18.5294 25.1742 18.2572 25.6587 17.7727C26.1432 17.2882 26.4154 16.6311 26.4154 15.946V3.02938C26.4154 2.34424 26.1432 1.68716 25.6587 1.20269C25.1742 0.718212 24.5171 0.446045 23.832 0.446045Z" fill="white"/>
<path d="M23.832 0.446045H10.9154C10.2302 0.446045 9.57314 0.718212 9.08868 1.20269C8.6042 1.68716 8.33203 2.34424 8.33203 3.02938V5.61271H18.6654C19.3505 5.61271 20.0075 5.88488 20.492 6.36936C20.9765 6.85382 21.2487 7.51091 21.2487 8.19605V18.5294H23.832C24.5171 18.5294 25.1742 18.2572 25.6587 17.7727C26.1432 17.2882 26.4154 16.6311 26.4154 15.946V3.02938C26.4154 2.34424 26.1432 1.68716 25.6587 1.20269C25.1742 0.718212 24.5171 0.446045 23.832 0.446045Z" fill="#C3D3F3"/>
</svg>
