<svg width="18" height="18" viewBox="0 0 18 18" fill="none" xmlns="http://www.w3.org/2000/svg">
<path d="M11.75 11.8516L11.75 6.85156L6.75 6.85156L6.75 11.8516L11.75 11.8516Z" stroke="white" stroke-width="1.5" stroke-linecap="round" stroke-linejoin="round"/>
<path d="M9.25 17.9016C13.9719 17.9016 17.8 14.0735 17.8 9.35156C17.8 4.62963 13.9719 0.801562 9.25 0.801562C4.52807 0.801562 0.7 4.62963 0.7 9.35156C0.7 14.0735 4.52807 17.9016 9.25 17.9016ZM11.8923 15.7305C11.0546 16.0775 10.1567 16.2561 9.25 16.2561C7.4188 16.2561 5.6626 15.5287 4.36775 14.2338C3.0729 12.939 2.34545 11.1828 2.34545 9.35156C2.34545 7.52036 3.0729 5.76416 4.36775 4.46931C5.6626 3.17446 7.4188 2.44702 9.25 2.44702C10.1567 2.44702 11.0546 2.62561 11.8923 2.97259C12.73 3.31958 13.4911 3.82817 14.1322 4.46931C14.7734 5.11046 15.282 5.87161 15.629 6.70931C15.976 7.54701 16.1545 8.44484 16.1545 9.35156C16.1545 10.2583 15.976 11.1561 15.629 11.9938C15.282 12.8315 14.7734 13.5927 14.1322 14.2338C13.4911 14.875 12.73 15.3835 11.8923 15.7305Z" fill="white" stroke="white" stroke-width="0.1"/>
</svg>
