<svg width="24" height="18" viewBox="0 0 24 18" fill="none" xmlns="http://www.w3.org/2000/svg">
<path d="M19.5914 1.4921C18.1164 0.801473 16.5346 0.292648 14.8808 0.00122249C14.8506 -0.00440192 14.8206 0.00965379 14.805 0.0377659C14.6016 0.406965 14.3763 0.888616 14.2185 1.26719C12.4397 0.99545 10.67 0.99545 8.92767 1.26719C8.76984 0.880201 8.53632 0.406965 8.33198 0.0377659C8.31647 0.0105918 8.28638 -0.00346397 8.25626 0.00122249C6.60334 0.291716 5.02158 0.800541 3.54562 1.4921C3.53284 1.49772 3.52189 1.5071 3.51462 1.51928C0.514342 6.09311 -0.307559 10.5545 0.095638 14.9606C0.0974624 14.9822 0.109321 15.0028 0.125741 15.0159C2.10524 16.4993 4.02272 17.3998 5.90459 17.9967C5.93471 18.0061 5.96662 17.9949 5.98579 17.9695C6.43094 17.3492 6.82776 16.6952 7.168 16.0073C7.18807 15.967 7.16891 15.9192 7.12787 15.9033C6.49845 15.6597 5.89911 15.3626 5.3226 15.0253C5.277 14.9981 5.27334 14.9316 5.3153 14.8997C5.43662 14.8069 5.55797 14.7104 5.67381 14.613C5.69477 14.5952 5.72398 14.5914 5.74862 14.6026C9.5361 16.3672 13.6365 16.3672 17.3793 14.6026C17.4039 14.5905 17.4331 14.5942 17.455 14.612C17.5709 14.7095 17.6922 14.8069 17.8144 14.8997C17.8564 14.9316 17.8536 14.9981 17.808 15.0253C17.2315 15.3692 16.6322 15.6597 16.0019 15.9024C15.9608 15.9183 15.9426 15.967 15.9626 16.0073C16.3102 16.6942 16.707 17.3483 17.1439 17.9686C17.1622 17.9949 17.195 18.0061 17.2251 17.9967C19.1161 17.3998 21.0336 16.4993 23.0131 15.0159C23.0304 15.0028 23.0414 14.9831 23.0432 14.9616C23.5258 9.86763 22.235 5.4428 19.6215 1.52021C19.6151 1.5071 19.6042 1.49772 19.5914 1.4921ZM7.73359 12.2778C6.5933 12.2778 5.65374 11.2095 5.65374 9.89763C5.65374 8.58572 6.57508 7.51748 7.73359 7.51748C8.9012 7.51748 9.83167 8.5951 9.81342 9.89763C9.81342 11.2095 8.89207 12.2778 7.73359 12.2778ZM15.4235 12.2778C14.2833 12.2778 13.3437 11.2095 13.3437 9.89763C13.3437 8.58572 14.265 7.51748 15.4235 7.51748C16.5911 7.51748 17.5216 8.5951 17.5034 9.89763C17.5034 11.2095 16.5911 12.2778 15.4235 12.2778Z" fill="#3D455F"/>
</svg>
