<svg width="10" height="10" viewBox="0 0 10 10" fill="none" xmlns="http://www.w3.org/2000/svg">
<path d="M8.90928 4.08676L6.55101 3.72785L5.4968 1.48981C5.468 1.42854 5.42064 1.37893 5.36212 1.34878C5.21537 1.27292 5.03703 1.33614 4.96366 1.48981L3.90944 3.72785L1.55117 4.08676C1.48615 4.09648 1.42671 4.12858 1.3812 4.17721C1.32618 4.23643 1.29586 4.31611 1.2969 4.39872C1.29795 4.48134 1.33027 4.56014 1.38677 4.61782L3.09301 6.35981L2.6899 8.81962C2.68045 8.87684 2.6865 8.93569 2.70736 8.98949C2.72822 9.04329 2.76306 9.0899 2.80793 9.12403C2.8528 9.15815 2.9059 9.17843 2.96121 9.18256C3.01653 9.18669 3.07184 9.17451 3.12088 9.14739L5.23023 7.98606L7.33958 9.14739C7.39716 9.17949 7.46404 9.19019 7.52813 9.17852C7.68974 9.14934 7.79841 8.98885 7.77055 8.81962L7.36744 6.35981L9.07368 4.61782C9.12012 4.57016 9.15078 4.50791 9.16006 4.43983C9.18514 4.26961 9.07183 4.11205 8.90928 4.08676V4.08676Z" stroke="#C3D4EF" strokeWidth="0.7375"/>
</svg>
