<svg width="28" height="29" viewBox="0 0 28 29" fill="none" xmlns="http://www.w3.org/2000/svg">
<path d="M26.1597 11.1553L18.3654 9.96913L14.8811 2.57222C14.7859 2.3697 14.6294 2.20575 14.436 2.1061C13.9509 1.85535 13.3615 2.0643 13.119 2.57222L9.63477 9.96913L1.84047 11.1553C1.62558 11.1875 1.42911 11.2936 1.27869 11.4543C1.09684 11.65 0.996633 11.9134 1.00009 12.1864C1.00354 12.4595 1.11037 12.7199 1.29711 12.9105L6.93639 18.668L5.60408 26.7978C5.57284 26.987 5.59282 27.1815 5.66177 27.3593C5.73072 27.5371 5.84586 27.6912 5.99416 27.8039C6.14245 27.9167 6.31796 27.9837 6.50078 27.9974C6.68359 28.011 6.86641 27.9708 7.02848 27.8812L14.0001 24.0429L20.9716 27.8812C21.162 27.9873 21.383 28.0226 21.5948 27.984C22.129 27.8876 22.4881 27.3572 22.396 26.7978L21.0637 18.668L26.703 12.9105C26.8565 12.753 26.9578 12.5473 26.9885 12.3223C27.0714 11.7597 26.6969 11.2389 26.1597 11.1553V11.1553Z" stroke="#FED735" strokeOpacity="0.69" strokeWidth="2"/>
<path d="M26.1597 11.1553L18.3654 9.96913L14.8811 2.57222C14.7859 2.3697 14.6294 2.20575 14.436 2.1061C13.9509 1.85535 13.3615 2.0643 13.119 2.57222L9.63477 9.96913L1.84047 11.1553C1.62558 11.1875 1.42911 11.2936 1.27869 11.4543C1.09684 11.65 0.996633 11.9134 1.00009 12.1864C1.00354 12.4595 1.11037 12.7199 1.29711 12.9105L6.93639 18.668L5.60408 26.7978C5.57284 26.987 5.59282 27.1815 5.66177 27.3593C5.73072 27.5371 5.84586 27.6912 5.99416 27.8039C6.14245 27.9167 6.31796 27.9837 6.50078 27.9974C6.68359 28.011 6.86641 27.9708 7.02848 27.8812L14.0001 24.0429L20.9716 27.8812C21.162 27.9873 21.383 28.0226 21.5948 27.984C22.129 27.8876 22.4881 27.3572 22.396 26.7978L21.0637 18.668L26.703 12.9105C26.8565 12.753 26.9578 12.5473 26.9885 12.3223C27.0714 11.7597 26.6969 11.2389 26.1597 11.1553V11.1553Z" stroke="#C2A01C" strokeWidth="2"/>
</svg>
