<svg width="25" height="17" viewBox="0 0 25 17" fill="none" xmlns="http://www.w3.org/2000/svg">
<path d="M23.7384 2.53737C23.6011 2.0477 23.3337 1.60437 22.9646 1.25453C22.5851 0.893917 22.12 0.635965 21.6131 0.505017C19.7161 0.00500895 12.116 0.00500906 12.116 0.00500906C8.94757 -0.0310394 5.77994 0.127511 2.63097 0.479764C2.12408 0.620386 1.65981 0.884101 1.27943 1.24745C0.905689 1.60706 0.634978 2.0505 0.493561 2.53636C0.153851 4.36644 -0.011203 6.22465 0.000623428 8.08595C-0.011498 9.94558 0.153151 11.8032 0.493561 13.6355C0.631947 14.1194 0.901649 14.5608 1.2764 14.9174C1.65116 15.274 2.11783 15.5315 2.63097 15.6679C4.55323 16.1669 12.116 16.1669 12.116 16.1669C15.2884 16.203 18.4601 16.0444 21.6131 15.6921C22.12 15.5612 22.5851 15.3032 22.9646 14.9426C23.3336 14.5929 23.6007 14.1495 23.7374 13.6598C24.086 11.8304 24.2555 9.97143 24.2435 8.10919C24.2697 6.23906 24.1004 4.37131 23.7384 2.53636V2.53737ZM9.69978 11.5446V4.62832L16.0231 8.08696L9.69978 11.5446Z" fill="#A5B8D7"/>
</svg>
