<svg width="18" height="17" viewBox="0 0 18 17" fill="none" xmlns="http://www.w3.org/2000/svg">
<path d="M9.25626 0.909714C4.44215 0.907886 0.542969 4.56798 0.542969 9.08551C0.542969 12.6578 2.98215 15.6945 6.37908 16.8097C6.83655 16.9176 6.76647 16.6123 6.76647 16.4039V14.987C4.12484 15.2777 4.01777 13.6359 3.84063 13.3617C3.48244 12.7877 2.63564 12.6414 2.88871 12.3672C3.49023 12.0765 4.10343 12.4403 4.81396 13.4257C5.32788 14.1405 6.33042 14.0199 6.8385 13.901C6.94946 13.4714 7.18695 13.0875 7.51399 12.7895C4.77698 12.3288 3.63623 10.7602 3.63623 8.89537C3.63623 7.99041 3.95353 7.15857 4.57647 6.48761C4.17935 5.38154 4.61346 4.43452 4.67186 4.29375C5.80287 4.19868 6.97866 5.05429 7.07015 5.12193C7.71255 4.95922 8.44645 4.87329 9.26794 4.87329C10.0933 4.87329 10.8292 4.96288 11.4774 5.12741C11.6974 4.97019 12.7875 4.23524 13.8387 4.32483C13.8952 4.4656 14.3196 5.39068 13.9458 6.48213C14.5765 7.15491 14.8977 7.99406 14.8977 8.90086C14.8977 10.7693 13.7492 12.3397 11.0044 12.7931C11.2395 13.0103 11.4261 13.2692 11.5535 13.5549C11.6808 13.8405 11.7463 14.1471 11.7461 14.4568V16.5136C11.7616 16.6781 11.7461 16.8408 12.0381 16.8408C15.4856 15.7494 17.9676 12.6908 17.9676 9.08734C17.9676 4.56798 14.0665 0.909714 9.25626 0.909714Z" fill="#A5B8D7"/>
</svg>
