<svg width="23" height="16" viewBox="0 0 23 16" fill="none" xmlns="http://www.w3.org/2000/svg">
<path d="M22.9047 14.2867C22.9047 14.839 22.457 15.2868 21.9047 15.2868H12.5364C11.9841 15.2868 11.5364 14.839 11.5364 14.2868V13.7604C11.5364 13.2082 11.9841 12.7604 12.5364 12.7604H21.9047C22.457 12.7604 22.9047 13.2082 22.9047 13.7604V14.2867ZM22.9047 7.97098C22.9047 8.52327 22.457 8.97098 21.9047 8.97098H1.16797C0.615685 8.97098 0.167969 8.52327 0.167969 7.97098V7.44467C0.167969 6.89239 0.615684 6.44467 1.16797 6.44467H21.9047C22.457 6.44467 22.9047 6.89239 22.9047 7.44467V7.97098ZM22.9047 1.65521C22.9047 2.2075 22.457 2.65521 21.9047 2.65521H1.16797C0.615685 2.65521 0.167969 2.2075 0.167969 1.65521V1.12891C0.167969 0.576622 0.615684 0.128906 1.16797 0.128906H21.9047C22.457 0.128906 22.9047 0.576621 22.9047 1.12891V1.65521Z" fill="white"/>
</svg>
