<svg width="17" height="18" viewBox="0 0 17 18" fill="none" xmlns="http://www.w3.org/2000/svg">
<path d="M16.5 3.73714C16.5 2.8786 16.1945 2.05522 15.6506 1.44814C15.1068 0.841055 14.3691 0.5 13.6 0.5H3.4C2.63087 0.5 1.89324 0.841055 1.34939 1.44814C0.805534 2.05522 0.5 2.8786 0.5 3.73714V10.6579C0.5 11.5165 0.805534 12.3399 1.34939 12.9469C1.89324 13.554 2.63087 13.8951 3.4 13.8951H7.5412L11.8812 17.3144C12.4772 17.7841 13.3 17.3081 13.3 16.4937V13.8951H13.6C14.3691 13.8951 15.1068 13.554 15.6506 12.9469C16.1945 12.3399 16.5 11.5165 16.5 10.6579V3.73714Z" fill="#C3D3F3"/>
</svg>
