<svg width="25" height="28" viewBox="0 0 25 28" fill="none" xmlns="http://www.w3.org/2000/svg">
<g clip-path="url(#clip0_1_115)">
<path d="M22.2284 4.3695C15.368 6.50997 8.0489 9.43647 0.68762 12.1515C-0.231133 12.491 -0.224098 13.7338 0.70169 14.0058C2.84076 14.6338 4.98827 15.2923 7.13624 15.9597C7.27553 16.0028 7.42655 15.9836 7.54942 15.9067C10.9834 13.7573 14.4441 11.5493 17.8025 9.46133C17.9765 9.35299 18.166 9.5978 18.0149 9.73616C15.2864 12.2406 12.4494 14.8453 9.65472 17.4093C9.47557 17.5735 9.44321 17.8436 9.57734 18.0476C11.3778 20.786 13.1722 23.5381 14.8521 26.2413C15.2789 26.9298 16.2886 26.7858 16.5925 26.0026C19.2193 19.1999 21.9854 12.4657 23.9632 6.09867C24.2642 5.12223 23.2034 4.06747 22.2284 4.3695Z" fill="#A5B8D7"/>
<path d="M6.80371 18.0782C6.82059 19.9818 6.8553 21.8854 6.90736 23.7891C6.93175 24.6023 7.89036 25.0539 8.46628 24.5122C9.06847 23.9476 9.67769 23.3778 10.2925 22.8047C10.5899 22.5275 10.6443 22.0683 10.4187 21.7213C9.56325 20.4053 8.69796 19.0888 7.83455 17.7789C7.52596 17.3109 6.79902 17.5229 6.80418 18.0782H6.80371Z" fill="#A5B8D7"/>
</g>
<defs>
<clipPath id="clip0_1_115">
<rect width="24.0123" height="24.0123" fill="white" transform="translate(0 3.4939)"/>
</clipPath>
</defs>
</svg>
