<svg width="25" height="26" viewBox="0 0 25 26" fill="none" xmlns="http://www.w3.org/2000/svg">
<path d="M4.49746 14.1442C4.50209 11.8838 5.29346 9.69545 6.73572 7.95492C6.90091 7.75619 6.98037 7.49997 6.95665 7.24265C6.93292 6.98532 6.80795 6.74795 6.60921 6.58277C6.41048 6.41759 6.15426 6.33812 5.89694 6.36184C5.63961 6.38557 5.40224 6.51055 5.23706 6.70928C3.50944 8.8018 2.56445 11.4307 2.56445 14.1442C2.56445 16.8577 3.50944 19.4866 5.23706 21.5791C5.32856 21.689 5.44314 21.7773 5.57265 21.8379C5.70216 21.8984 5.84343 21.9297 5.98639 21.9295C6.21377 21.9299 6.43413 21.8507 6.60921 21.7056C6.70775 21.6239 6.78921 21.5236 6.84891 21.4104C6.90862 21.2971 6.9454 21.1733 6.95715 21.0458C6.9689 20.9183 6.95539 20.7898 6.9174 20.6676C6.8794 20.5453 6.81767 20.4318 6.73572 20.3335C5.29346 18.5929 4.50209 16.4046 4.49746 14.1442Z" fill="#000936"/>
<path d="M12.2823 16.0916C13.3572 16.0916 14.2286 15.2202 14.2286 14.1453C14.2286 13.0704 13.3572 12.199 12.2823 12.199C11.2073 12.199 10.3359 13.0704 10.3359 14.1453C10.3359 15.2202 11.2073 16.0916 12.2823 16.0916Z" fill="#000936"/>
<path d="M17.2057 10.7166C17.1496 10.5925 17.0681 10.4816 16.9664 10.3909C16.8648 10.3003 16.7453 10.2321 16.6156 10.1905C16.4859 10.149 16.349 10.1352 16.2136 10.1499C16.0782 10.1646 15.9474 10.2076 15.8297 10.2761C15.712 10.3445 15.61 10.4369 15.5302 10.5472C15.4504 10.6576 15.3947 10.7834 15.3666 10.9167C15.3385 11.0499 15.3387 11.1876 15.3672 11.3207C15.3957 11.4539 15.4517 11.5796 15.5318 11.6897C15.9589 12.4294 16.1837 13.2685 16.1837 14.1226C16.1837 14.9767 15.9589 15.8158 15.5318 16.5555C15.4647 16.6652 15.42 16.7872 15.4004 16.9143C15.3807 17.0414 15.3864 17.1711 15.4172 17.296C15.4479 17.4209 15.5031 17.5384 15.5796 17.6418C15.6561 17.7452 15.7523 17.8325 15.8627 17.8985C16.0175 17.9851 16.1914 18.0319 16.3687 18.0347C16.5367 18.0357 16.702 17.9932 16.8487 17.9113C16.9953 17.8295 17.1183 17.7111 17.2057 17.5676C17.7979 16.5301 18.1094 15.3562 18.1094 14.1615C18.1094 12.9669 17.7979 11.793 17.2057 10.7555V10.7166Z" fill="#000936"/>
<path d="M8.70174 10.389C8.59202 10.3219 8.47008 10.2772 8.34298 10.2575C8.21588 10.2378 8.08614 10.2435 7.96126 10.2743C7.83637 10.3051 7.71883 10.3603 7.61542 10.4367C7.51201 10.5132 7.42479 10.6094 7.35879 10.7198C6.76656 11.7573 6.45508 12.9313 6.45508 14.1259C6.45508 15.3205 6.76656 16.4944 7.35879 17.5319C7.44121 17.6826 7.56206 17.8088 7.70906 17.8977C7.85605 17.9866 8.02395 18.035 8.1957 18.038C8.37307 18.0352 8.54696 17.9884 8.70174 17.9017C8.81214 17.8357 8.90835 17.7485 8.98483 17.6451C9.0613 17.5417 9.11652 17.4241 9.14728 17.2993C9.17805 17.1744 9.18376 17.0446 9.16408 16.9175C9.1444 16.7904 9.09971 16.6685 9.03262 16.5588C8.60556 15.8191 8.38073 14.98 8.38073 14.1259C8.38073 13.2718 8.60556 12.4327 9.03262 11.693C9.15599 11.4748 9.19045 11.2175 9.12881 10.9746C9.06717 10.7317 8.9142 10.5219 8.70174 10.389Z" fill="#000936"/>
<path d="M19.3375 6.70928C19.2557 6.61088 19.1553 6.52955 19.0421 6.46993C18.9289 6.41032 18.805 6.37359 18.6776 6.36184C18.4203 6.33812 18.1641 6.41759 17.9653 6.58277C17.7666 6.74795 17.6416 6.98532 17.6179 7.24265C17.5942 7.49997 17.6736 7.75619 17.8388 7.95492C19.2752 9.69771 20.0606 11.8858 20.0606 14.1442C20.0606 16.4026 19.2752 18.5907 17.8388 20.3335C17.7569 20.4318 17.6951 20.5453 17.6571 20.6676C17.6191 20.7898 17.6056 20.9183 17.6174 21.0458C17.6291 21.1733 17.6659 21.2971 17.7256 21.4104C17.7853 21.5236 17.8668 21.6239 17.9653 21.7056C18.1404 21.8507 18.3608 21.9299 18.5881 21.9295C18.7311 21.9297 18.8724 21.8984 19.0019 21.8379C19.1314 21.7773 19.246 21.689 19.3375 21.5791C21.0651 19.4866 22.0101 16.8577 22.0101 14.1442C22.0101 11.4307 21.0651 8.8018 19.3375 6.70928Z" fill="#000936"/>
</svg>
