<svg width="38" height="38" viewBox="0 0 38 38" fill="none" xmlns="http://www.w3.org/2000/svg">
<path fill-rule="evenodd" clip-rule="evenodd" d="M37.1504 18.6513C37.1504 28.8679 28.867 37.1513 18.6504 37.1513C8.43377 37.1513 0.150391 28.8679 0.150391 18.6513C0.150391 8.43465 8.43377 0.151276 18.6504 0.151276C28.867 0.151276 37.1504 8.43465 37.1504 18.6513ZM30.5027 17.199C30.8018 17.6261 30.9714 18.1302 30.9899 18.6513C30.998 19.1611 30.8615 19.6627 30.5963 20.0981C30.3311 20.5336 29.948 20.885 29.4914 21.1118C29.513 21.3831 29.513 21.6544 29.4914 21.9258C29.4914 26.0698 24.6629 29.4368 18.7059 29.4368C12.7489 29.4368 7.92039 26.0698 7.92039 21.9258C7.89956 21.6548 7.89956 21.3827 7.92039 21.1118C7.56761 20.9466 7.25478 20.7071 7.00339 20.4095C6.752 20.112 6.56802 19.7636 6.46409 19.3882C6.36017 19.0128 6.33876 18.6193 6.40134 18.2349C6.46392 17.8504 6.60901 17.4841 6.82663 17.161C7.04425 16.838 7.32925 16.5659 7.66202 16.3634C7.9948 16.161 8.36747 16.033 8.75441 15.9883C9.14134 15.9435 9.53338 15.9831 9.90357 16.1043C10.2738 16.2255 10.6133 16.4254 10.8989 16.6903C13.0306 15.2445 15.5385 14.4536 18.1139 14.4148L19.4829 7.99528C19.4983 7.92096 19.5282 7.85043 19.5711 7.78778C19.6139 7.72513 19.6687 7.67161 19.7324 7.63031C19.7961 7.58901 19.8673 7.56076 19.942 7.54719C20.0166 7.53363 20.0933 7.53501 20.1674 7.55128L24.6999 8.45778C24.9212 8.07749 25.2709 7.78854 25.6861 7.64281C26.1012 7.49708 26.5548 7.5041 26.9653 7.66262C27.3757 7.82114 27.7163 8.12077 27.9257 8.50774C28.1352 8.8947 28.1999 9.34365 28.1081 9.774C28.0164 10.2044 27.7743 10.5879 27.4253 10.8559C27.0763 11.1238 26.6432 11.2586 26.2037 11.236C25.7643 11.2133 25.3473 11.0349 25.0276 10.7325C24.7079 10.4302 24.5065 10.0238 24.4594 9.58628L20.5004 8.75378L19.2979 14.5258C21.842 14.5804 24.3159 15.3707 26.4204 16.8013C26.7013 16.5312 27.0374 16.3251 27.4056 16.1972C27.7737 16.0693 28.1652 16.0227 28.5531 16.0605C28.941 16.0983 29.3161 16.2196 29.6527 16.4161C29.9892 16.6127 30.2792 16.8798 30.5027 17.199ZM12.8013 19.473C12.6663 19.675 12.5724 19.9017 12.5249 20.14C12.4775 20.3784 12.4775 20.6237 12.5248 20.8621C12.6205 21.3435 12.9035 21.7671 13.3116 22.0399C13.7197 22.3126 14.2193 22.412 14.7007 22.3163C14.9391 22.2689 15.1658 22.1751 15.3678 22.0401C15.5699 21.9051 15.7434 21.7316 15.8785 21.5296C16.1512 21.1215 16.2506 20.6218 16.1549 20.1404C16.0592 19.6591 15.7762 19.2354 15.3682 18.9627C14.9601 18.69 14.4604 18.5905 13.9791 18.6862C13.4977 18.7819 13.074 19.0649 12.8013 19.473ZM18.6689 27.0133C20.3108 27.0811 21.9264 26.6525 23.2384 25.6628C23.3365 25.5671 23.3926 25.4364 23.3944 25.2993C23.3961 25.1623 23.3433 25.0302 23.2476 24.932C23.2003 24.8834 23.1438 24.8447 23.0814 24.8179C23.0191 24.7911 22.952 24.7769 22.8842 24.7761C22.7471 24.7743 22.615 24.8271 22.5169 24.9228C21.3941 25.7282 20.0301 26.1263 18.6504 26.0513C17.2724 26.1128 15.9147 25.7016 14.8024 24.8858C14.7065 24.8071 14.5849 24.7669 14.461 24.773C14.3371 24.7791 14.22 24.831 14.1323 24.9187C14.0446 25.0064 13.9927 25.1235 13.9866 25.2474C13.9805 25.3712 14.0207 25.4929 14.0994 25.5888C15.4119 26.5779 17.0268 27.0813 18.6689 27.0133ZM21.8771 22.1139C22.1823 22.3174 22.5215 22.4993 22.8869 22.4993C23.1378 22.5022 23.3867 22.454 23.6184 22.3576C23.8501 22.2613 24.0597 22.1187 24.2345 21.9387C24.4093 21.7587 24.5457 21.545 24.6352 21.3106C24.7248 21.0762 24.7657 20.826 24.7554 20.5753C24.7553 20.2557 24.6724 19.9416 24.5148 19.6636C24.3572 19.3856 24.1303 19.1532 23.8562 18.989C23.582 18.8247 23.27 18.7343 22.9506 18.7265C22.6311 18.7187 22.3151 18.7938 22.0333 18.9444C21.7514 19.0951 21.5134 19.3162 21.3425 19.5861C21.1715 19.8561 21.0734 20.1658 21.0576 20.4849C21.0419 20.8041 21.1091 21.1219 21.2527 21.4074C21.3963 21.6928 21.6115 21.9362 21.8771 22.1139Z" fill="#A5B8D7"/>
</svg>
