<svg width="15" height="18" viewBox="0 0 15 18" fill="none" xmlns="http://www.w3.org/2000/svg">
<path d="M1 17.5C0.716667 17.5 0.479 17.404 0.287 17.212C0.0956668 17.0207 0 16.7833 0 16.5V1.5C0 1.21667 0.0956668 0.979 0.287 0.787C0.479 0.595667 0.716667 0.5 1 0.5H8.175C8.40833 0.5 8.61667 0.575 8.8 0.725C8.98333 0.875 9.1 1.06667 9.15 1.3L9.4 2.5H14C14.2833 2.5 14.5207 2.59567 14.712 2.787C14.904 2.979 15 3.21667 15 3.5V11.5C15 11.7833 14.904 12.0207 14.712 12.212C14.5207 12.404 14.2833 12.5 14 12.5H8.825C8.59167 12.5 8.38333 12.425 8.2 12.275C8.01667 12.125 7.9 11.9333 7.85 11.7L7.6 10.5H2V16.5C2 16.7833 1.90433 17.0207 1.713 17.212C1.521 17.404 1.28333 17.5 1 17.5Z" fill="#C3D3F3"/>
</svg>
