<svg width="142" height="142" viewBox="0 0 142 142" fill="none" xmlns="http://www.w3.org/2000/svg">
<path d="M36.8058 89.92C34.6374 87.7517 33.8238 88.8422 33.3424 89.3236C20.8693 101.797 9.79338 131.893 15.6466 128.941C36.9463 118.24 40.5119 121.427 52.9851 108.953C53.4664 108.472 54.574 107.675 52.3461 105.448L36.8058 89.92Z" fill="white"/>
<path d="M104.038 89.7515C103.476 87.9538 104.66 87.0891 105.159 86.5481C132.686 56.8264 150.186 17.2258 137.219 4.25854C124.32 -8.6406 85.942 9.37049 56.2246 36.7023C55.7416 37.2116 55.1328 37.5846 54.4597 37.7835C53.7866 37.9825 53.0729 38.0004 52.3906 37.8355L43.1295 35.6331C40.5735 35.0197 36.927 36.0591 35.0611 37.9164L1.08799 71.8853C-0.777866 73.7554 -0.189973 75.6213 2.43842 76.0302L27.0098 79.8898C29.6212 80.3158 33.2848 79.1102 35.1506 77.2401C35.1506 77.2401 36.4286 75.9621 37.7066 77.2401L64.4804 104.022C64.6619 104.184 64.8081 104.382 64.9101 104.603C65.012 104.824 65.0675 105.063 65.0731 105.307C65.0787 105.55 65.0343 105.792 64.9426 106.017C64.8509 106.242 64.7139 106.446 64.54 106.617C62.6699 108.487 61.4771 112.155 61.8861 114.762L65.7498 139.329C66.1758 141.94 68.0246 142.549 69.8905 140.679L103.864 106.71C105.729 104.84 106.76 101.211 106.147 98.6378L104.038 89.7515ZM99.4418 48.3491C99.0197 48.3977 98.5921 48.3627 98.1835 48.2459C97.7749 48.1292 97.3934 47.9331 97.0606 47.6688C96.7279 47.4045 96.4505 47.0773 96.2444 46.7057C96.0382 46.3341 95.9074 45.9256 95.8592 45.5034L94.1552 30.5467C94.0581 29.6944 94.3033 28.8384 94.8368 28.1667C95.3704 27.4949 96.1487 27.0624 97.0008 26.9641L111.958 25.2601C112.81 25.163 113.666 25.4082 114.338 25.9417C115.009 26.4753 115.442 27.2536 115.54 28.1058L117.244 43.0625C117.293 43.4846 117.258 43.9122 117.141 44.3207C117.024 44.7293 116.828 45.1109 116.564 45.4436C116.3 45.7763 115.972 46.0537 115.601 46.2599C115.229 46.466 114.821 46.5969 114.399 46.6451L99.4418 48.3491Z" fill="white"/>
</svg>
