<svg width="27" height="28" viewBox="0 0 27 28" fill="none" xmlns="http://www.w3.org/2000/svg">
<path d="M10.6836 22.5266C9.9881 24.6387 8.31381 26.1841 5.85389 27.0083C4.74737 27.3735 3.59294 27.5731 2.42803 27.6007C2.15477 27.6007 1.8927 27.4921 1.69947 27.2989C1.50625 27.1057 1.39769 26.8437 1.39769 26.5704C1.42528 25.4056 1.62492 24.2512 1.99014 23.1448C2.8144 20.685 4.3599 19.0108 6.47209 18.3154C6.60297 18.2579 6.74438 18.2283 6.88732 18.2284C7.03026 18.2286 7.17162 18.2585 7.30239 18.3162C7.43316 18.3739 7.55049 18.4582 7.64692 18.5637C7.74335 18.6692 7.81678 18.7936 7.86252 18.929C7.90826 19.0645 7.92532 19.2079 7.91261 19.3503C7.89991 19.4927 7.85772 19.6308 7.78872 19.756C7.71972 19.8812 7.62544 19.9906 7.51185 20.0774C7.39826 20.1642 7.26785 20.2264 7.12893 20.26C4.59173 21.11 3.8061 23.8531 3.5614 25.4371C5.14553 25.1924 7.8888 24.4069 8.73882 21.8698C8.84239 21.634 9.03053 21.4455 9.26617 21.3415C9.50182 21.2375 9.76787 21.2255 10.0119 21.308C10.2559 21.3904 10.4602 21.5612 10.5846 21.7868C10.7089 22.0123 10.7442 22.2763 10.6836 22.5266ZM23.5499 12.7262L22.4036 13.8852V21.7797C22.3999 22.3252 22.1826 22.8476 21.7983 23.2349L17.6254 27.3946C17.4362 27.5884 17.2097 27.7419 16.9596 27.8459C16.7095 27.95 16.441 28.0023 16.1701 27.9999C15.9691 28.0015 15.7691 27.9711 15.5777 27.9098C15.2192 27.8024 14.8967 27.5994 14.6448 27.3226C14.3929 27.0458 14.2212 26.7056 14.1481 26.3386L13.1306 21.2517L7.74713 15.8685L2.65985 14.8511C2.29282 14.778 1.95264 14.6063 1.67582 14.3544C1.399 14.1026 1.19599 13.7801 1.08859 13.4216C0.980351 13.0657 0.971115 12.687 1.06188 12.3263C1.15264 11.9655 1.33998 11.6363 1.60376 11.374L5.76373 7.20137C6.15104 6.81709 6.67348 6.59981 7.21908 6.59609H15.114L16.2731 5.44991C19.9566 1.7667 23.7302 1.86973 25.1855 2.08866C25.6219 2.14904 26.0267 2.35028 26.3382 2.66178C26.6497 2.97328 26.851 3.37799 26.9113 3.81436C27.1303 5.26962 27.2333 9.04297 23.5499 12.7262ZM3.05911 12.8292L7.91456 13.7951L13.0533 8.65662H7.21908L3.05911 12.8292ZM9.71764 14.9155L14.0837 19.2813L22.0945 11.2709C23.0991 10.2664 25.3916 7.56196 24.8764 4.12344C21.4377 3.60831 18.7331 5.90066 17.7285 6.90517L9.71764 14.9155ZM20.343 15.9458L15.2042 21.0842L16.1701 25.9394L20.343 21.7797V15.9458Z" fill="#A5B8D7"/>
</svg>
