<svg width="19" height="18" viewBox="0 0 19 18" fill="none" xmlns="http://www.w3.org/2000/svg">
<path d="M10.1918 9.3172L3.43743 10.4426C3.35977 10.4556 3.2869 10.4888 3.22614 10.5388C3.16537 10.5889 3.11886 10.6541 3.09128 10.7278L0.762381 16.9675C0.539983 17.5414 1.13992 18.0884 1.69053 17.8122L17.8323 9.74137C17.9438 9.68546 18.0377 9.5996 18.1032 9.49341C18.1688 9.38722 18.2035 9.26489 18.2035 9.14009C18.2035 9.0153 18.1688 8.89296 18.1032 8.78677C18.0377 8.68058 17.9438 8.59473 17.8323 8.53881L1.69053 0.467939C1.13992 0.192632 0.539983 0.739658 0.762381 1.31269L3.09217 7.55237C3.11976 7.62611 3.16627 7.69129 3.22703 7.74135C3.2878 7.79141 3.36067 7.82458 3.43832 7.83754L10.1927 8.96298C10.2349 8.96971 10.2732 8.99123 10.3009 9.02369C10.3286 9.05615 10.3438 9.09742 10.3438 9.14009C10.3438 9.18276 10.3286 9.22403 10.3009 9.25649C10.2732 9.28895 10.2349 9.31048 10.1927 9.3172H10.1918Z" fill="white"/>
</svg>
