<svg width="19" height="19" viewBox="0 0 19 19" fill="none" xmlns="http://www.w3.org/2000/svg">
<path fill-rule="evenodd" clip-rule="evenodd" d="M12.0314 9.25371C12.0314 9.89242 11.7776 10.505 11.326 10.9566C10.8744 11.4082 10.2618 11.662 9.6231 11.662C8.98439 11.662 8.37184 11.4082 7.9202 10.9566C7.46857 10.505 7.21484 9.89242 7.21484 9.25371C7.21484 8.615 7.46857 8.00245 7.9202 7.55082C8.37184 7.09918 8.98439 6.84546 9.6231 6.84546C10.2618 6.84546 10.8744 7.09918 11.326 7.55082C11.7776 8.00245 12.0314 8.615 12.0314 9.25371ZM10.4258 9.25371C10.4258 9.46661 10.3413 9.6708 10.1907 9.82134C10.0402 9.97189 9.836 10.0565 9.6231 10.0565C9.41019 10.0565 9.20601 9.97189 9.05547 9.82134C8.90492 9.6708 8.82035 9.46661 8.82035 9.25371C8.82035 9.04081 8.90492 8.83663 9.05547 8.68608C9.20601 8.53554 9.41019 8.45096 9.6231 8.45096C9.836 8.45096 10.0402 8.53554 10.1907 8.68608C10.3413 8.83663 10.4258 9.04081 10.4258 9.25371Z" fill="#000936"/>
<path fill-rule="evenodd" clip-rule="evenodd" d="M9.62121 14.8733C10.3591 14.8733 11.0898 14.7279 11.7716 14.4455C12.4534 14.1631 13.0728 13.7492 13.5946 13.2274C14.1164 12.7056 14.5303 12.0862 14.8127 11.4044C15.0951 10.7227 15.2405 9.99195 15.2405 9.25402C15.2405 8.51609 15.0951 7.78539 14.8127 7.10363C14.5303 6.42187 14.1164 5.8024 13.5946 5.28061C13.0728 4.75881 12.4534 4.3449 11.7716 4.06251C11.0898 3.78011 10.3591 3.63477 9.62121 3.63477C8.13089 3.63477 6.70161 4.22679 5.6478 5.28061C4.59398 6.33442 4.00195 7.7637 4.00195 9.25402C4.00195 10.7443 4.59398 12.1736 5.6478 13.2274C6.70161 14.2813 8.13089 14.8733 9.62121 14.8733ZM9.62121 13.2678C10.6857 13.2678 11.7066 12.8449 12.4594 12.0922C13.2121 11.3395 13.635 10.3185 13.635 9.25402C13.635 8.18951 13.2121 7.16859 12.4594 6.41587C11.7066 5.66314 10.6857 5.24027 9.62121 5.24027C8.5567 5.24027 7.53578 5.66314 6.78306 6.41587C6.03033 7.16859 5.60746 8.18951 5.60746 9.25402C5.60746 10.3185 6.03033 11.3395 6.78306 12.0922C7.53578 12.8449 8.5567 13.2678 9.62121 13.2678Z" fill="#000936"/>
<path fill-rule="evenodd" clip-rule="evenodd" d="M9.62128 18.0841C14.498 18.0841 18.4515 14.1306 18.4515 9.25385C18.4515 4.37713 14.498 0.423584 9.62128 0.423584C4.74456 0.423584 0.791016 4.37713 0.791016 9.25385C0.791016 14.1306 4.74456 18.0841 9.62128 18.0841ZM9.62128 16.4786C10.57 16.4786 11.5095 16.2917 12.3861 15.9287C13.2626 15.5656 14.0591 15.0334 14.73 14.3625C15.4008 13.6916 15.933 12.8952 16.2961 12.0186C16.6592 11.1421 16.846 10.2026 16.846 9.25385C16.846 8.30508 16.6592 7.3656 16.2961 6.48905C15.933 5.6125 15.4008 4.81605 14.73 4.14517C14.0591 3.47429 13.2626 2.94212 12.3861 2.57904C11.5095 2.21596 10.57 2.02909 9.62128 2.02909C7.70515 2.02909 5.86751 2.79026 4.5126 4.14517C3.1577 5.50007 2.39652 7.33772 2.39652 9.25385C2.39652 11.17 3.1577 13.0076 4.5126 14.3625C5.86751 15.7174 7.70515 16.4786 9.62128 16.4786Z" fill="#000936"/>
</svg>
