<svg width="27" height="20" viewBox="0 0 27 20" fill="none" xmlns="http://www.w3.org/2000/svg">
<path d="M9.95993 18.9424C9.74185 19.2749 9.98038 19.7166 10.378 19.7166H13.4974H16.6168C17.0144 19.7166 17.2529 19.2749 17.0349 18.9424L13.9155 14.1863C13.718 13.8853 13.2767 13.8853 13.0793 14.1863L9.95993 18.9424Z" fill="#7087AD"/>
<path fill-rule="evenodd" clip-rule="evenodd" d="M26.5953 17.4176C26.7776 17.7508 26.5364 18.1575 26.1566 18.1575H21.3928C21.2089 18.1575 21.0399 18.0566 20.9526 17.8947L14.0078 5.00484C13.8182 4.65298 13.3129 4.65477 13.1258 5.00795L7.84156 14.9835L6.26377 17.8957C6.17637 18.057 6.00763 18.1575 5.82415 18.1575H0.854702C0.472339 18.1575 0.231476 17.7458 0.418858 17.4125L9.86334 0.613367C9.95188 0.455873 10.1185 0.358398 10.2992 0.358398H16.9688C17.1515 0.358398 17.3197 0.458122 17.4074 0.618475L26.5953 17.4176Z" fill="#7087AD"/>
</svg>
