<svg width="27" height="20" viewBox="0 0 27 20" fill="none" xmlns="http://www.w3.org/2000/svg">
<path d="M9.95993 18.584C9.74185 18.9165 9.98038 19.3582 10.378 19.3582H13.4974H16.6168C17.0144 19.3582 17.2529 18.9165 17.0349 18.584L13.9155 13.8279C13.718 13.5269 13.2767 13.5269 13.0793 13.8279L9.95993 18.584Z" fill="#A5B8D7"/>
<path fill-rule="evenodd" clip-rule="evenodd" d="M26.5953 17.0592C26.7776 17.3924 26.5364 17.7991 26.1566 17.7991H21.3928C21.2089 17.7991 21.0399 17.6982 20.9526 17.5363L14.0078 4.64645C13.8182 4.29459 13.3129 4.29637 13.1258 4.64956L7.84156 14.6251L6.26377 17.5373C6.17637 17.6986 6.00763 17.7991 5.82415 17.7991H0.854702C0.472339 17.7991 0.231476 17.3874 0.418858 17.0541L9.86334 0.254968C9.95188 0.0974744 10.1185 0 10.2992 0H16.9688C17.1515 0 17.3197 0.0997237 17.4074 0.260076L26.5953 17.0592Z" fill="#A5B8D7"/>
</svg>
