<svg width="18" height="17" viewBox="0 0 18 17" fill="none" xmlns="http://www.w3.org/2000/svg">
<path d="M16.7936 2.41571C17.2855 1.92389 17.2855 1.12649 16.7936 0.634664C16.3018 0.142841 15.5044 0.142842 15.0126 0.634664L8.9835 6.66375C8.90539 6.74185 8.77876 6.74185 8.70065 6.66375L2.67157 0.634664C2.17975 0.142841 1.38235 0.142841 0.890523 0.634664C0.398701 1.12649 0.398701 1.92389 0.890523 2.41571L6.91961 8.4448C6.99771 8.5229 6.99771 8.64953 6.91961 8.72764L0.890523 14.7567C0.398701 15.2485 0.398701 16.0459 0.890524 16.5378C1.38235 17.0296 2.17975 17.0296 2.67157 16.5378L8.70065 10.5087C8.77876 10.4306 8.90539 10.4306 8.9835 10.5087L15.0126 16.5378C15.5044 17.0296 16.3018 17.0296 16.7936 16.5378C17.2855 16.0459 17.2855 15.2485 16.7936 14.7567L10.7645 8.72764C10.6864 8.64953 10.6864 8.5229 10.7645 8.4448L16.7936 2.41571Z" fill="white"/>
</svg>
