<svg width="21" height="21" viewBox="0 0 21 21" fill="none" xmlns="http://www.w3.org/2000/svg">
<path fill-rule="evenodd" clip-rule="evenodd" d="M10.8008 20.793C16.3236 20.793 20.8008 16.3158 20.8008 10.793C20.8008 5.27012 16.3236 0.792969 10.8008 0.792969C5.27793 0.792969 0.800781 5.27012 0.800781 10.793C0.800781 16.3158 5.27793 20.793 10.8008 20.793ZM15.4576 6.81385C15.6213 6.85353 15.7737 6.9211 15.9051 7.01235C16.013 7.09789 16.1052 7.19649 16.1785 7.30489C16.2579 7.4243 16.3086 7.55564 16.3277 7.69146C16.3587 7.82955 16.3587 7.97128 16.3277 8.10937C16.2864 8.24171 16.2146 8.36596 16.1164 8.47504L10.4356 14.7437C10.3188 14.8676 10.17 14.9676 10.0005 15.0362C9.83107 15.1092 9.64394 15.1486 9.45356 15.1512C9.26416 15.1518 9.07708 15.1161 8.90661 15.0467C8.73712 14.9781 8.58836 14.8781 8.47154 14.7541L5.43847 11.5049C5.33965 11.3946 5.26397 11.2709 5.21472 11.1392C5.19015 11.0042 5.19015 10.8668 5.21472 10.7318C5.2377 10.5952 5.29262 10.4638 5.37631 10.3452C5.45169 10.223 5.55772 10.1161 5.68708 10.0318C5.81652 9.94779 5.9644 9.88612 6.12225 9.85026C6.28009 9.8144 6.4448 9.80507 6.60695 9.8228C6.76762 9.84234 6.92315 9.88474 7.06688 9.94818C7.21346 10.0286 7.33666 10.1358 7.42737 10.2616L9.45356 12.4452L14.1523 7.22131C14.2472 7.1095 14.3703 7.01673 14.5128 6.94967C14.654 6.87932 14.8103 6.83316 14.9728 6.81385C15.1322 6.78227 15.2981 6.78227 15.4576 6.81385Z" fill="#00B2FF"/>
</svg>
