<svg xmlns="http://www.w3.org/2000/svg" className="svg css-w1atjl" viewBox="0 0 24 20"><title>Follow us on Twitter (opens in a new window)</title><path d="M7.826 19.143c8.49 0 13.134-7.034 13.134-13.135 0-.2 0-.398-.013-.596a9.392 9.392 0 0 0 2.303-2.39 9.214 9.214 0 0 1-2.651.727 4.632 4.632 0 0 0 2.03-2.554 9.251 9.251 0 0 1-2.932 1.12 4.62 4.62 0 0 0-7.867 4.211 13.106 13.106 0 0 1-9.514-4.823 4.62 4.62 0 0 0 1.43 6.162 4.582 4.582 0 0 1-2.096-.578v.059c0 2.197 1.55 4.09 3.704 4.525a4.609 4.609 0 0 1-2.085.08 4.622 4.622 0 0 0 4.313 3.205A9.263 9.263 0 0 1 .75 17.07a13.069 13.069 0 0 0 7.076 2.07" fill="#a0a0a0"></path></svg>