<svg width="110" height="110" viewBox="0 0 110 110" fill="none" xmlns="http://www.w3.org/2000/svg">
<path d="M55.0039 3.4377C47.419 3.4377 40.2049 5.07064 33.7142 8.01654C32.8257 8.41995 32.4507 9.48102 32.8884 10.353L35.96 16.5063C36.3724 17.3327 37.3641 17.6855 38.2058 17.3053C43.3364 15.0144 49.015 13.7535 55.0039 13.7535C77.806 13.7535 96.2505 32.1981 96.2505 55.0002C96.2505 63.578 93.6104 71.5046 89.1339 78.1059L83.7158 72.6846C83.3456 72.3136 82.8265 72.1323 82.3059 72.1907C81.4373 72.2914 80.7828 73.0284 80.7852 73.9028V92.8091C80.7817 93.7583 81.548 94.5309 82.4972 94.5346H101.4C102.944 94.5476 103.719 92.6739 102.619 91.5907L96.5258 85.4977C102.812 76.9523 106.566 66.4137 106.566 55C106.566 26.5432 83.4607 3.4375 55.0039 3.4375V3.4377ZM8.59094 15.4656C7.06243 15.4662 6.29491 17.312 7.37238 18.3962L13.4686 24.4924C7.18173 33.0386 3.44141 43.5847 3.44141 55.0002C3.44141 83.457 26.5471 106.563 55.0039 106.563C62.5888 106.563 69.8029 104.916 76.2936 101.97C77.1808 101.566 77.5542 100.505 77.116 99.6341L74.0344 93.4808C73.6224 92.6618 72.6401 92.3102 71.802 92.6818C66.6715 94.9727 60.9928 96.2469 55.0039 96.2469C32.2018 96.2468 13.7573 77.8023 13.7573 55.0002C13.7573 46.4255 16.3819 38.4893 20.8538 31.8877L26.2921 37.3125C27.3762 38.3899 29.2221 37.6224 29.2227 36.0941V17.1911C29.2261 16.2366 28.4517 15.4619 27.4972 15.4656H8.59094ZM58.3541 25.778C57.7935 25.804 57.2809 26.106 56.9811 26.5803L36.3662 59.2367C35.6435 60.3778 36.459 61.8684 37.8097 61.8753H51.4254L49.851 82.366C49.7247 84.1398 52.0456 84.9143 53.0099 83.4201L73.6416 50.7604C74.3683 49.6128 73.5397 48.1154 72.1813 48.1217H58.569L60.1535 27.631C60.2356 26.597 59.3902 25.7246 58.3541 25.778Z" fill="white"/>
<path d="M55.0039 3.4377C47.419 3.4377 40.2049 5.07064 33.7142 8.01654C32.8257 8.41995 32.4507 9.48102 32.8884 10.353L35.96 16.5063C36.3724 17.3327 37.3641 17.6855 38.2058 17.3053C43.3364 15.0144 49.015 13.7535 55.0039 13.7535C77.806 13.7535 96.2505 32.1981 96.2505 55.0002C96.2505 63.578 93.6104 71.5046 89.1339 78.1059L83.7158 72.6846C83.3456 72.3136 82.8265 72.1323 82.3059 72.1907C81.4373 72.2914 80.7828 73.0284 80.7852 73.9028V92.8091C80.7817 93.7583 81.548 94.5309 82.4972 94.5346H101.4C102.944 94.5476 103.719 92.6739 102.619 91.5907L96.5258 85.4977C102.812 76.9523 106.566 66.4137 106.566 55C106.566 26.5432 83.4607 3.4375 55.0039 3.4375V3.4377ZM8.59094 15.4656C7.06243 15.4662 6.29491 17.312 7.37238 18.3962L13.4686 24.4924C7.18173 33.0386 3.44141 43.5847 3.44141 55.0002C3.44141 83.457 26.5471 106.563 55.0039 106.563C62.5888 106.563 69.8029 104.916 76.2936 101.97C77.1808 101.566 77.5542 100.505 77.116 99.6341L74.0344 93.4808C73.6224 92.6618 72.6401 92.3102 71.802 92.6818C66.6715 94.9727 60.9928 96.2469 55.0039 96.2469C32.2018 96.2468 13.7573 77.8023 13.7573 55.0002C13.7573 46.4255 16.3819 38.4893 20.8538 31.8877L26.2921 37.3125C27.3762 38.3899 29.2221 37.6224 29.2227 36.0941V17.1911C29.2261 16.2366 28.4517 15.4619 27.4972 15.4656H8.59094ZM58.3541 25.778C57.7935 25.804 57.2809 26.106 56.9811 26.5803L36.3662 59.2367C35.6435 60.3778 36.459 61.8684 37.8097 61.8753H51.4254L49.851 82.366C49.7247 84.1398 52.0456 84.9143 53.0099 83.4201L73.6416 50.7604C74.3683 49.6128 73.5397 48.1154 72.1813 48.1217H58.569L60.1535 27.631C60.2356 26.597 59.3902 25.7246 58.3541 25.778Z" fill="url(#paint0_linear_260_1529)"/>
<defs>
<linearGradient id="paint0_linear_260_1529" x1="3.44141" y1="106.563" x2="153.102" y2="106.563" gradientUnits="userSpaceOnUse">
<stop stop-color="#F1F52A"/>
<stop offset="1" stop-color="#FF9900"/>
</linearGradient>
</defs>
</svg>
