<svg width="27" height="27" viewBox="0 0 27 27" fill="none" xmlns="http://www.w3.org/2000/svg">
<path d="M25.9006 9.65401L18.022 8.49632L14.5 1.27721C14.4038 1.07956 14.2456 0.919554 14.0501 0.822295C13.5598 0.57758 12.964 0.781509 12.7189 1.27721L9.19692 8.49632L1.31831 9.65401C1.1011 9.68538 0.902506 9.78892 0.750457 9.94579C0.566639 10.1368 0.465346 10.3938 0.468837 10.6603C0.472328 10.9268 0.580317 11.181 0.769075 11.367L6.46935 16.9861L5.12263 24.9205C5.09105 25.1051 5.11125 25.2949 5.18095 25.4684C5.25064 25.642 5.36703 25.7923 5.51693 25.9024C5.66683 26.0125 5.84424 26.0779 6.02903 26.0912C6.21382 26.1045 6.39861 26.0652 6.56244 25.9778L13.6094 22.2318L20.6564 25.9778C20.8488 26.0813 21.0722 26.1158 21.2863 26.0782C21.8263 25.9841 22.1893 25.4664 22.0962 24.9205L20.7495 16.9861L26.4498 11.367C26.6049 11.2133 26.7073 11.0125 26.7384 10.7929C26.8222 10.2438 26.4436 9.73558 25.9006 9.65401Z" fill="url(#paint0_linear_1_2254)"/>
<defs>
<linearGradient id="paint0_linear_1_2254" x1="5.33565" y1="7.0625" x2="24.3539" y2="21.6532" gradientUnits="userSpaceOnUse">
<stop stop-color="#FFCF73"/>
<stop offset="1" stop-color="#FFBC3A"/>
</linearGradient>
</defs>
</svg>
